<svg width="48" height="48" viewBox="0 0 48 48" fill="none" xmlns="http://www.w3.org/2000/svg">
<path d="M37.9408 28.2896C37.9539 28.2251 38.0461 28.2251 38.0593 28.2896C38.7438 31.6386 41.361 34.2558 44.71 34.9403C44.7745 34.9535 44.7745 35.0456 44.71 35.0588C41.361 35.7433 38.7438 38.3605 38.0593 41.7095C38.0461 41.774 37.9539 41.774 37.9408 41.7095C37.2562 38.3605 34.6391 35.7433 31.2901 35.0588C31.2256 35.0456 31.2256 34.9535 31.2901 34.9403C34.6391 34.2558 37.2562 31.6386 37.9408 28.2896Z" stroke="#F6D7A8" stroke-width="3"/>
<path d="M24.6362 8.04506C23.8325 8.24598 23.3439 9.06038 23.5448 9.86407C23.7457 10.6678 24.5601 11.1564 25.3638 10.9555L24.6362 8.04506ZM21.3631 42.4451L21.6721 40.9773H21.6721L21.3631 42.4451ZM12.6223 40.605L12.9313 39.1371V39.1371L12.6223 40.605ZM41.5 24.0003C41.5 24.8287 42.1716 25.5003 43 25.5003C43.8284 25.5003 44.5 24.8287 44.5 24.0003H41.5ZM29.059 43.4681C29.8697 43.2974 30.3885 42.5019 30.2178 41.6913C30.0472 40.8806 29.2516 40.3618 28.441 40.5324L29.059 43.4681ZM26.6369 42.4451L26.3279 40.9773H26.3279L26.6369 42.4451ZM23.3368 42.7974L23.4611 41.3025L23.4611 41.3025L23.3368 42.7974ZM24.6632 42.7974L24.5389 41.3025L24.5389 41.3025L24.6632 42.7974ZM5.49486 36.518L4.11858 37.1145H4.11858L5.49486 36.518ZM7.53097 39.0274L6.66371 40.2513H6.66371L7.53097 39.0274ZM38.7717 6.95247L38.3288 8.38559V8.38559L38.7717 6.95247ZM42.1316 9.57579L43.4145 8.79851V8.79851L42.1316 9.57579ZM5.00316 13.2004L6.50237 13.249L5.00316 13.2004ZM12.191 9.04704C13.0016 9.21771 13.7972 8.69889 13.9678 7.88823C14.1385 7.07758 13.6197 6.28206 12.809 6.11139L12.191 9.04704ZM12.045 7.48666L11.7838 8.96373V8.96373L12.045 7.48666ZM23.5 16.181C23.5 17.0094 24.1716 17.681 25 17.681C25.8284 17.681 26.5 17.0094 26.5 16.181H23.5ZM22.3558 7.31262L23.1948 6.06918L22.3558 7.31262ZM19.2372 5.2085L18.3983 6.45195L19.2372 5.2085ZM14.8697 35.8654L15.2248 34.4081L15.2248 34.4081L14.8697 35.8654ZM15.4533 36.0076L15.0982 37.465H15.0982L15.4533 36.0076ZM22.2297 43.5747C22.547 44.34 23.4246 44.7032 24.1898 44.3859C24.9551 44.0686 25.3183 43.1911 25.001 42.4258L22.2297 43.5747ZM6.5 31.2109V13.6647H3.5V31.2109H6.5ZM25.3638 10.9555L31.4355 9.43757L30.7079 6.52714L24.6362 8.04506L25.3638 10.9555ZM21.6721 40.9773L12.9313 39.1371L12.3133 42.0728L21.0541 43.9129L21.6721 40.9773ZM41.5 17.2957V24.0003H44.5V17.2957H41.5ZM28.441 40.5324L26.3279 40.9773L26.9459 43.9129L29.059 43.4681L28.441 40.5324ZM21.054 43.9129C22.0037 44.1129 22.6011 44.2413 23.2124 44.2922L23.4611 41.3025C23.0787 41.2707 22.6915 41.1919 21.6721 40.9773L21.054 43.9129ZM26.3279 40.9773C25.3085 41.1919 24.9213 41.2707 24.5389 41.3025L24.7876 44.2922C25.3989 44.2413 25.9963 44.1129 26.946 43.9129L26.3279 40.9773ZM23.2124 44.2922C23.7366 44.3358 24.2634 44.3358 24.7876 44.2922L24.5389 41.3025C24.1802 41.3324 23.8198 41.3324 23.4611 41.3025L23.2124 44.2922ZM3.5 31.2109C3.5 32.5774 3.49905 33.6832 3.56594 34.5882C3.63422 35.5121 3.77837 36.3296 4.11858 37.1145L6.87115 35.9215C6.71649 35.5647 6.61321 35.1171 6.55778 34.3671C6.50095 33.5982 6.5 32.6213 6.5 31.2109H3.5ZM12.9313 39.1371C11.5512 38.8466 10.5954 38.6444 9.85473 38.4304C9.13219 38.2216 8.71552 38.0284 8.39823 37.8035L6.66371 40.2513C7.36171 40.7459 8.13203 41.0554 9.022 41.3125C9.89378 41.5644 10.9761 41.7913 12.3133 42.0728L12.9313 39.1371ZM4.11858 37.1145C4.66412 38.3732 5.54443 39.4581 6.66371 40.2513L8.39823 37.8035C7.72666 37.3276 7.19847 36.6767 6.87115 35.9215L4.11858 37.1145ZM31.4355 9.43757C33.4951 8.92265 34.9444 8.56176 36.0801 8.38228C37.2048 8.20455 37.848 8.237 38.3288 8.38559L39.2146 5.51936C38.0943 5.17309 36.9205 5.21225 35.6119 5.41905C34.3143 5.6241 32.7141 6.02557 30.7079 6.52714L31.4355 9.43757ZM44.5 17.2957C44.5 15.2277 44.5014 13.5779 44.3856 12.2694C44.2689 10.9497 44.0222 9.80144 43.4145 8.79851L40.8487 10.3531C41.1094 10.7834 41.2969 11.3996 41.3973 12.5338C41.4986 13.6791 41.5 15.1727 41.5 17.2957H44.5ZM38.3288 8.38559C39.3813 8.71087 40.2779 9.41092 40.8487 10.3531L43.4145 8.79851C42.4631 7.22824 40.9688 6.0615 39.2146 5.51936L38.3288 8.38559ZM6.5 13.6647C6.5 13.4073 6.50021 13.3157 6.50237 13.249L3.50394 13.1518C3.49979 13.2796 3.5 13.4327 3.5 13.6647H6.5ZM12.809 6.11139C12.582 6.0636 12.4323 6.03187 12.3063 6.00959L11.7838 8.96373C11.8494 8.97534 11.9391 8.99402 12.191 9.04704L12.809 6.11139ZM6.50237 13.249C6.59121 10.5107 9.08584 8.48654 11.7838 8.96373L12.3063 6.00959C7.80974 5.21426 3.65201 8.58781 3.50394 13.1518L6.50237 13.249ZM26.5 16.181V12.2864H23.5V16.181H26.5ZM23.1948 6.06918L20.0762 3.96506L18.3983 6.45195L21.5169 8.55607L23.1948 6.06918ZM11.5 8.52436V33.4855H14.5V8.52436H11.5ZM14.5146 37.3228L15.0982 37.465L15.8084 34.5503L15.2248 34.4081L14.5146 37.3228ZM15.0982 37.465C18.3134 38.2484 20.9624 40.5178 22.2297 43.5747L25.001 42.4258C23.3674 38.4854 19.9528 35.56 15.8084 34.5503L15.0982 37.465ZM11.5 33.4855C11.5 35.3067 12.7452 36.8917 14.5146 37.3228L15.2248 34.4081C14.7994 34.3044 14.5 33.9234 14.5 33.4855H11.5ZM20.0762 3.96506C16.4232 1.50042 11.5 4.11772 11.5 8.52436H14.5C14.5 6.52135 16.7378 5.33166 18.3983 6.45195L20.0762 3.96506ZM26.5 12.2864C26.5 9.79348 25.2613 7.46348 23.1948 6.06918L21.5169 8.55607C22.7568 9.39265 23.5 10.7906 23.5 12.2864H26.5Z" fill="#DA702C"/>
</svg>
