<svg width="48" height="48" viewBox="0 0 48 48" fill="none" xmlns="http://www.w3.org/2000/svg">
<path d="M37.9408 3.29009C37.9539 3.22557 38.0461 3.22557 38.0593 3.29009C38.7438 6.63906 41.361 9.25625 44.71 9.94075C44.7745 9.95394 44.7745 10.0461 44.71 10.0593C41.361 10.7438 38.7438 13.361 38.0593 16.71C38.0461 16.7745 37.9539 16.7745 37.9408 16.71C37.2562 13.361 34.6391 10.7438 31.2901 10.0593C31.2256 10.0461 31.2256 9.95394 31.2901 9.94075C34.6391 9.25625 37.2562 6.63906 37.9408 3.29009Z" stroke="#F6D7A8" stroke-width="3"/>
<path d="M24 11.5C24.8284 11.5 25.5 10.8284 25.5 10C25.5 9.17157 24.8284 8.5 24 8.5V11.5ZM39.5 24C39.5 23.1716 38.8284 22.5 38 22.5C37.1716 22.5 36.5 23.1716 36.5 24H39.5ZM8.5 15V33H11.5V15H8.5ZM15 39.5H33V36.5H15V39.5ZM15 11.5H24V8.5H15V11.5ZM39.5 33V24H36.5V33H39.5ZM10 13.5C8.067 13.5 6.5 11.933 6.5 10H3.5C3.5 13.5899 6.41015 16.5 10 16.5V13.5ZM13.5 10C13.5 11.933 11.933 13.5 10 13.5V16.5C13.5899 16.5 16.5 13.5899 16.5 10H13.5ZM10 6.5C11.933 6.5 13.5 8.067 13.5 10H16.5C16.5 6.41015 13.5899 3.5 10 3.5V6.5ZM10 3.5C6.41015 3.5 3.5 6.41015 3.5 10H6.5C6.5 8.067 8.067 6.5 10 6.5V3.5ZM10 41.5C8.067 41.5 6.5 39.933 6.5 38H3.5C3.5 41.5899 6.41015 44.5 10 44.5V41.5ZM13.5 38C13.5 39.933 11.933 41.5 10 41.5V44.5C13.5899 44.5 16.5 41.5899 16.5 38H13.5ZM10 34.5C11.933 34.5 13.5 36.067 13.5 38H16.5C16.5 34.4101 13.5899 31.5 10 31.5V34.5ZM10 31.5C6.41015 31.5 3.5 34.4101 3.5 38H6.5C6.5 36.067 8.067 34.5 10 34.5V31.5ZM38 41.5C36.067 41.5 34.5 39.933 34.5 38H31.5C31.5 41.5899 34.4101 44.5 38 44.5V41.5ZM41.5 38C41.5 39.933 39.933 41.5 38 41.5V44.5C41.5899 44.5 44.5 41.5899 44.5 38H41.5ZM38 34.5C39.933 34.5 41.5 36.067 41.5 38H44.5C44.5 34.4101 41.5899 31.5 38 31.5V34.5ZM38 31.5C34.4101 31.5 31.5 34.4101 31.5 38H34.5C34.5 36.067 36.067 34.5 38 34.5V31.5Z" fill="#DA702C"/>
</svg>
