<svg width="48" height="48" viewBox="0 0 48 48" fill="none" xmlns="http://www.w3.org/2000/svg">
<path d="M31.9408 5.2896C31.9539 5.22508 32.0461 5.22508 32.0593 5.2896C32.7438 8.63857 35.361 11.2558 38.71 11.9403C38.7745 11.9535 38.7745 12.0456 38.71 12.0588C35.361 12.7433 32.7438 15.3605 32.0593 18.7095C32.0461 18.774 31.9539 18.774 31.9408 18.7095C31.2562 15.3605 28.6391 12.7433 25.2901 12.0588C25.2256 12.0456 25.2256 11.9535 25.2901 11.9403C28.6391 11.2558 31.2562 8.63857 31.9408 5.2896Z" stroke="#F6D7A8" stroke-width="3"/>
<path d="M24.4374 19.7521C24.5626 19.1399 25.4374 19.1399 25.5625 19.7521C25.8389 21.1043 26.8956 22.1611 28.2478 22.4374C28.86 22.5626 28.86 23.4374 28.2478 23.5625C26.8956 23.8389 25.8389 24.8956 25.5625 26.2478C25.4374 26.86 24.5626 26.86 24.4374 26.2478C24.1611 24.8956 23.1043 23.8389 21.7521 23.5625C21.1399 23.4374 21.1399 22.5626 21.7521 22.4374C23.1043 22.1611 24.1611 21.1043 24.4374 19.7521Z" fill="#F6D7A8"/>
<path fill-rule="evenodd" clip-rule="evenodd" d="M23.4994 6.42827C23.5233 7.25636 22.8713 7.94702 22.0433 7.97092C18.4721 8.07399 14.9361 9.48706 12.2114 12.2118C6.54878 17.8744 6.54878 27.0553 12.2114 32.7179C17.874 38.3805 27.0549 38.3805 32.7175 32.7179C35.6559 29.7794 37.0696 25.8963 36.9584 22.0436C36.9345 21.2156 37.5864 20.5249 38.4145 20.501C39.2425 20.4771 39.9332 21.129 39.9571 21.9571C40.0776 26.1329 38.7101 30.348 35.8546 33.7337L41.9099 39.789C42.4957 40.3747 42.4957 41.3245 41.9099 41.9103C41.3241 42.4961 40.3743 42.4961 39.7885 41.9103L33.7333 35.8551C26.8577 41.6547 16.5669 41.3161 10.0901 34.8392C3.25589 28.005 3.25589 16.9247 10.0901 10.0905C13.3774 6.8031 17.6507 5.09644 21.9567 4.97217C22.7848 4.94827 23.4755 5.60019 23.4994 6.42827Z" fill="#DA702C"/>
</svg>
