<svg width="48" height="48" viewBox="0 0 48 48" fill="none" xmlns="http://www.w3.org/2000/svg">
<path d="M16.1646 20.0872C16.3504 19.178 17.6495 19.178 17.8354 20.0872C18.9755 25.6653 23.3347 30.0245 28.9128 31.1646C29.822 31.3504 29.822 32.6495 28.9128 32.8354C23.3347 33.9755 18.9755 38.3347 17.8354 43.9128C17.6495 44.822 16.3504 44.822 16.1646 43.9128C15.0245 38.3347 10.6653 33.9755 5.08719 32.8354C4.17797 32.6495 4.17797 31.3504 5.08719 31.1646C10.6653 30.0245 15.0245 25.6653 16.1646 20.0872Z" stroke="#202124" stroke-width="3"/>
<path d="M37.9408 13.2901C37.9539 13.2256 38.0461 13.2256 38.0593 13.2901C38.7438 16.6391 41.361 19.2562 44.71 19.9408C44.7745 19.9539 44.7745 20.0461 44.71 20.0593C41.361 20.7438 38.7438 23.361 38.0593 26.71C38.0461 26.7745 37.9539 26.7745 37.9408 26.71C37.2562 23.361 34.6391 20.7438 31.2901 20.0593C31.2256 20.0461 31.2256 19.9539 31.2901 19.9408C34.6391 19.2562 37.2562 16.6391 37.9408 13.2901Z" stroke="#00C2FF" stroke-width="3"/>
<path d="M23.0626 2.58707C23.2711 1.56668 24.7291 1.56668 24.9376 2.58708C25.3983 4.84073 27.1595 6.60193 29.4131 7.06256C30.4335 7.27112 30.4335 8.72908 29.4131 8.93764C27.1595 9.39827 25.3983 11.1595 24.9376 13.4131C24.7291 14.4335 23.2711 14.4335 23.0626 13.4131C22.6019 11.1595 20.8407 9.39827 18.5871 8.93764C17.5667 8.72908 17.5667 7.27112 18.5871 7.06256C20.8407 6.60193 22.6019 4.84073 23.0626 2.58707Z" fill="#00C2FF"/>
</svg>
