<svg width="48" height="48" viewBox="0 0 48 48" fill="none" xmlns="http://www.w3.org/2000/svg">
<path d="M23.9408 18.2901C23.9539 18.2256 24.0461 18.2256 24.0593 18.2901C24.7438 21.6391 27.361 24.2562 30.71 24.9408C30.7745 24.9539 30.7745 25.0461 30.71 25.0593C27.361 25.7438 24.7438 28.361 24.0593 31.71C24.0461 31.7745 23.9539 31.7745 23.9408 31.71C23.2562 28.361 20.6391 25.7438 17.2901 25.0593C17.2256 25.0461 17.2256 24.9539 17.2901 24.9408C20.6391 24.2562 23.2562 21.6391 23.9408 18.2901Z" stroke="#00C2FF" stroke-width="3"/>
<path d="M38.0626 7.58695C38.2711 6.56656 39.7291 6.56656 39.9376 7.58695C40.3983 9.84061 42.1595 11.6018 44.4131 12.0624C45.4335 12.271 45.4335 13.729 44.4131 13.9375C42.1595 14.3982 40.3983 16.1594 39.9376 18.413C39.7291 19.4334 38.2711 19.4334 38.0626 18.413C37.6019 16.1594 35.8407 14.3982 33.5871 13.9375C32.5667 13.729 32.5667 12.271 33.5871 12.0624C35.8407 11.6018 37.6019 9.84061 38.0626 7.58695Z" fill="#00C2FF"/>
<path d="M43 22V29.2C43 33.6804 43 35.9206 42.1281 37.6319C41.3611 39.1372 40.1372 40.3611 38.6319 41.1281C36.9206 42 34.6804 42 30.2 42H17.8C13.3196 42 11.0794 42 9.36808 41.1281C7.86278 40.3611 6.63893 39.1372 5.87195 37.6319C5 35.9206 5 33.6804 5 29.2V19.8687C5 19.062 5 18.6586 5.02908 18.3185C5.36081 14.4384 8.43838 11.3608 12.3185 11.0291C12.6586 11 13.062 11 13.8687 11C14.0728 11 14.1748 11 14.272 10.9953C15.3501 10.9428 16.3613 10.4568 17.0758 9.64773C17.1402 9.57478 17.2039 9.4951 17.3314 9.33576L18.0784 8.40195C18.7841 7.51989 19.1369 7.07885 19.5749 6.7614C19.9628 6.48016 20.3982 6.27092 20.8601 6.14366C21.3816 6 21.9464 6 23.076 6H26.843C27.3727 6 27.6376 6 27.8916 6.03267C28.5741 6.12043 29.2223 6.38275 29.7738 6.79427C29.979 6.94746 30.1694 7.13164 30.55 7.5" stroke="#202124" stroke-width="3" stroke-linecap="round"/>
</svg>
