<svg width="48" height="48" viewBox="0 0 48 48" fill="none" xmlns="http://www.w3.org/2000/svg">
<path d="M32.9322 26.3314C32.9473 26.2577 33.0526 26.2577 33.0677 26.3314C33.85 30.1588 36.8411 33.1499 40.6684 33.9322C40.7422 33.9473 40.7422 34.0526 40.6684 34.0677C36.8411 34.85 33.85 37.8411 33.0677 41.6684C33.0526 41.7422 32.9473 41.7422 32.9322 41.6684C32.1499 37.8411 29.1588 34.85 25.3314 34.0677C25.2577 34.0526 25.2577 33.9473 25.3314 33.9322C29.1588 33.1499 32.1499 30.1588 32.9322 26.3314Z" stroke="#00C2FF" stroke-width="3"/>
<path d="M41.4374 21.7521C41.5626 21.1399 42.4374 21.1399 42.5625 21.7521C42.8389 23.1043 43.8956 24.1611 45.2478 24.4374C45.86 24.5626 45.86 25.4374 45.2478 25.5625C43.8956 25.8389 42.8389 26.8956 42.5625 28.2478C42.4374 28.86 41.5626 28.86 41.4374 28.2478C41.1611 26.8956 40.1043 25.8389 38.7521 25.5625C38.1399 25.4374 38.1399 24.5626 38.7521 24.4374C40.1043 24.1611 41.1611 23.1043 41.4374 21.7521Z" fill="#00C2FF"/>
<path d="M23 42C13.0589 42 5 38.4183 5 34C5 29.5817 13.0589 26 23 26M22 21C18.6863 21 16 18.3137 16 15V11C16 7.68629 18.6863 5 22 5C25.3137 5 28 7.68629 28 11V15C28 18.3137 25.3137 21 22 21Z" stroke="#202124" stroke-width="3" stroke-linecap="round"/>
</svg>
