<svg width="48" height="48" viewBox="0 0 48 48" fill="none" xmlns="http://www.w3.org/2000/svg">
<path d="M18.8237 6.6815C19.6794 6.45222 20.9714 6.27776 22.0267 6.16223C22.4758 6.11306 22.7004 6.08847 23.1813 6.07457C23.4801 6.06593 24.1647 6.08273 24.4627 6.10601C24.9423 6.14348 25.16 6.17819 25.5954 6.2476C27.5287 6.55584 30.537 7.14474 32.0001 7.99997M31.0804 21.5146L29.8627 24.9167C29.3301 26.4045 29.0638 27.1485 28.6367 27.7781C28.2582 28.3362 27.7883 28.8264 27.2468 29.2283C26.6358 29.6817 25.9038 29.9793 24.4399 30.5744L19.8636 32.435C18.9975 32.7871 18.5645 32.9632 18.2453 32.8816C17.967 32.8104 17.7328 32.623 17.6023 32.3671C17.4526 32.0737 17.5293 31.6125 17.6827 30.6903L18.4042 26.3522C18.6944 24.6077 18.8395 23.7354 19.2021 22.9735C19.5233 22.2988 19.9676 21.69 20.5123 21.1785C21.1273 20.6009 21.9139 20.1968 23.4869 19.3886L36.0724 12.9222C36.8105 12.543 37.1795 12.3534 37.5976 12.3276C37.9345 12.3067 38.3619 12.3994 38.66 12.5578C39.0298 12.7545 39.2518 13.0351 39.6958 13.5964C41.3367 15.6707 42.5905 18.1065 43.3186 20.8236C46.1774 31.493 39.8458 42.4597 29.1765 45.3185C18.5071 48.1774 7.5404 41.8457 4.68156 31.1764C3.94368 28.4226 3.81806 25.6489 4.22126 23" stroke="#202124" stroke-width="3" stroke-linecap="round"/>
<path d="M9.94075 6.29009C9.95394 6.22557 10.0461 6.22557 10.0593 6.29009C10.7438 9.63906 13.361 12.2562 16.71 12.9408C16.7745 12.9539 16.7745 13.0461 16.71 13.0593C13.361 13.7438 10.7438 16.361 10.0593 19.71C10.0461 19.7745 9.95394 19.7745 9.94075 19.71C9.25625 16.361 6.63906 13.7438 3.29009 13.0593C3.22557 13.0461 3.22557 12.9539 3.29009 12.9408C6.63906 12.2562 9.25625 9.63906 9.94075 6.29009Z" stroke="#00C2FF" stroke-width="3"/>
</svg>
