<svg width="48" height="48" viewBox="0 0 48 48" fill="none" xmlns="http://www.w3.org/2000/svg">
<path d="M17.9408 10.2901C17.9539 10.2256 18.0461 10.2256 18.0593 10.2901C18.7438 13.6391 21.361 16.2562 24.71 16.9408C24.7745 16.9539 24.7745 17.0461 24.71 17.0593C21.361 17.7438 18.7438 20.361 18.0593 23.71C18.0461 23.7745 17.9539 23.7745 17.9408 23.71C17.2562 20.361 14.6391 17.7438 11.2901 17.0593C11.2256 17.0461 11.2256 16.9539 11.2901 16.9408C14.6391 16.2562 17.2562 13.6391 17.9408 10.2901Z" stroke="#00C2FF" stroke-width="3"/>
<path d="M9.43744 4.75215C9.56258 4.13991 10.4374 4.13991 10.5625 4.75215C10.8389 6.10434 11.8956 7.16106 13.2478 7.43744C13.86 7.56258 13.86 8.43735 13.2478 8.56249C11.8956 8.83887 10.8389 9.89559 10.5625 11.2478C10.4374 11.86 9.56258 11.86 9.43744 11.2478C9.16106 9.89559 8.10434 8.83887 6.75215 8.56249C6.13991 8.43735 6.13991 7.56258 6.75215 7.43744C8.10434 7.16106 9.16106 6.10434 9.43744 4.75215Z" fill="#00C2FF"/>
<path d="M18.4998 42C17.6714 42 16.9998 42.6716 16.9998 43.5C16.9998 44.3284 17.6714 45 18.4998 45V42ZM37.9998 45C38.8283 45 39.4998 44.3284 39.4998 43.5C39.4998 42.6716 38.8283 42 37.9998 42V45ZM35.9998 11L37.0605 9.93935L37.0605 9.93935L35.9998 11ZM37.778 12.7782L36.7173 13.8388L36.7173 13.8388L37.778 12.7782ZM13.6357 41.6221L12.5711 42.6789H12.5711L13.6357 41.6221ZM10.589 38.5529L11.6535 37.4961V37.4961L10.589 38.5529ZM10.6151 24.3848L9.55439 23.3241H9.55439L10.6151 24.3848ZM24.4973 41.629L25.5623 42.6853V42.6853L24.4973 41.629ZM19.9213 43.5221L19.9288 42.0221H19.9288L19.9213 43.5221ZM18.1458 43.5132L18.1383 45.0132H18.1383L18.1458 43.5132ZM12.7628 24.3583C13.3486 23.7725 13.3486 22.8228 12.7628 22.237C12.1771 21.6512 11.2273 21.6512 10.6415 22.237L12.7628 24.3583ZM8.15495 35.8757L6.90209 36.7005L6.90209 36.7005L8.15495 35.8757ZM8.17119 27.0531L6.92136 26.2236H6.92136L8.17119 27.0531ZM15.0697 42.9103L14.2807 44.1861V44.1861L15.0697 42.9103ZM16.2219 43.3935L16.5788 41.9365H16.5788L16.2219 43.3935ZM23.0429 42.9349L23.8284 44.2128H23.8284L23.0429 42.9349ZM21.8732 43.4188L21.5263 41.9594V41.9594L21.8732 43.4188ZM41.2978 16.7852L39.975 17.4923V17.4923L41.2978 16.7852ZM41.2978 24.3275L42.6207 25.0346L42.6207 25.0346L41.2978 24.3275ZM35.3809 10.3939L34.3719 11.5039L35.3809 10.3939ZM22.9392 9.93935C22.3534 10.5251 22.3534 11.4749 22.9392 12.0607C23.525 12.6465 24.4747 12.6465 25.0605 12.0607L22.9392 9.93935ZM24.6188 10.3939L25.6277 11.5039V11.5039L24.6188 10.3939ZM18.4998 45H37.9998V42H18.4998V45ZM34.9392 12.0607L36.7173 13.8388L38.8387 11.7175L37.0605 9.93935L34.9392 12.0607ZM14.7003 40.5654L11.6535 37.4961L9.52443 39.6096L12.5711 42.6789L14.7003 40.5654ZM36.7173 27.2739L25.1107 38.8805L27.2321 41.0018L38.8387 29.3952L36.7173 27.2739ZM9.55439 25.4454L25.1107 41.0018L27.2321 38.8805L11.6757 23.3241L9.55439 25.4454ZM25.1064 38.8848L23.4323 40.5728L25.5623 42.6853L27.2364 40.9974L25.1064 38.8848ZM19.9288 42.0221L18.1533 42.0133L18.1383 45.0132L19.9138 45.0221L19.9288 42.0221ZM11.6757 25.4454L12.7628 24.3583L10.6415 22.237L9.55439 23.3241L11.6757 25.4454ZM11.6535 37.4961C10.2729 36.1054 9.74474 35.5626 9.40782 35.0508L6.90209 36.7005C7.4457 37.5262 8.24667 38.3224 9.52443 39.6096L11.6535 37.4961ZM9.55439 23.3241C8.2719 24.6066 7.46801 25.3999 6.92136 26.2236L9.42101 27.8825C9.75981 27.372 10.29 26.8311 11.6757 25.4454L9.55439 23.3241ZM9.40782 35.0508C7.97517 32.8747 7.98036 30.0533 9.42101 27.8825L6.92136 26.2236C4.81579 29.3964 4.80821 33.5199 6.90209 36.7005L9.40782 35.0508ZM12.5711 42.6789C13.2089 43.3214 13.693 43.8226 14.2807 44.1861L15.8586 41.6346C15.6425 41.5009 15.4385 41.309 14.7003 40.5654L12.5711 42.6789ZM18.1533 42.0133C17.1055 42.008 16.8256 41.997 16.5788 41.9365L15.865 44.8504C16.5363 45.0148 17.233 45.0087 18.1383 45.0132L18.1533 42.0133ZM14.2807 44.1861C14.7708 44.4892 15.3054 44.7133 15.865 44.8504L16.5788 41.9365C16.3244 41.8742 16.0814 41.7723 15.8586 41.6346L14.2807 44.1861ZM23.4323 40.5728C22.6838 41.3275 22.4768 41.5221 22.2574 41.657L23.8284 44.2128C24.4251 43.846 24.9157 43.3373 25.5623 42.6853L23.4323 40.5728ZM19.9138 45.0221C20.832 45.0267 21.5386 45.0401 22.22 44.8781L21.5263 41.9594C21.2757 42.019 20.9917 42.0274 19.9288 42.0221L19.9138 45.0221ZM22.2574 41.657C22.0313 41.796 21.7845 41.8981 21.5263 41.9594L22.22 44.8781C22.7881 44.7431 23.331 44.5185 23.8284 44.2128L22.2574 41.657ZM36.7173 13.8388C38.7681 15.8896 39.5469 16.6914 39.975 17.4923L42.6207 16.0781C41.93 14.7858 40.7351 13.614 38.8387 11.7175L36.7173 13.8388ZM38.8387 29.3952C40.7351 27.4987 41.93 26.3269 42.6207 25.0346L39.975 23.6204C39.5469 24.4213 38.7681 25.2231 36.7173 27.2739L38.8387 29.3952ZM39.975 17.4923C40.9983 19.4068 40.9983 21.7059 39.975 23.6204L42.6207 25.0346C44.1164 22.2364 44.1164 18.8763 42.6207 16.0781L39.975 17.4923ZM37.0605 9.93935C36.7541 9.63296 36.564 9.44222 36.3898 9.28391L34.3719 11.5039C34.4798 11.602 34.6083 11.7298 34.9392 12.0607L37.0605 9.93935ZM25.0605 12.0607C25.3913 11.7298 25.5198 11.602 25.6277 11.5039L23.6099 9.28391C23.4357 9.44222 23.2456 9.63296 22.9392 9.93935L25.0605 12.0607ZM36.3898 9.28391C32.7664 5.99032 27.2332 5.99032 23.6099 9.28391L25.6277 11.5039C28.1069 9.25034 31.8928 9.25034 34.3719 11.5039L36.3898 9.28391Z" fill="#202124"/>
</svg>
