<svg width="48" height="48" viewBox="0 0 48 48" fill="none" xmlns="http://www.w3.org/2000/svg">
<path d="M13 7H27C30.866 7 34 10.134 34 14M2 20V28.2C2 32.6804 2 34.9206 2.87195 36.6319C3.63893 38.1372 4.86278 39.3611 6.36808 40.1281C8.07937 41 10.3196 41 14.8 41H21.2C25.6804 41 27.9206 41 29.6319 40.1281C31.1372 39.3611 32.3611 38.1372 33.1281 36.6319C34 34.9206 34 32.6804 34 28.2V25.9976C34 24.8957 34 24.3448 34.1374 23.8343C34.2591 23.3819 34.4593 22.9545 34.7289 22.5714C35.0331 22.1391 35.4564 21.7864 36.3028 21.081L38.1271 19.5607C40.6385 17.4679 41.8943 16.4215 42.9548 16.4055C43.8767 16.3916 44.7538 16.8024 45.3334 17.5195C46 18.3445 46 19.9791 46 23.2482V25.1005C46 27.3108 46 28.4159 45.7242 29.0139C45.0686 30.4351 43.4307 31.1136 41.9622 30.5721C41.3443 30.3443 40.5629 29.5629 39 28" stroke="#202124" stroke-width="3" stroke-linecap="round"/>
<path d="M5.34384 7.21088C5.48984 6.4966 6.51041 6.4966 6.6564 7.21088C6.97884 8.78844 8.21169 10.0213 9.78924 10.3437C10.5035 10.4897 10.5035 11.5103 9.78924 11.6563C8.21169 11.9787 6.97884 13.2116 6.6564 14.7891C6.51041 15.5034 5.48984 15.5034 5.34384 14.7891C5.0214 13.2116 3.78856 11.9787 2.211 11.6563C1.49672 11.5103 1.49672 10.4897 2.211 10.3437C3.78856 10.0213 5.0214 8.78844 5.34384 7.21088Z" fill="#00C2FF"/>
<path d="M17.9408 17.2901C17.9539 17.2256 18.0461 17.2256 18.0593 17.2901C18.7438 20.6391 21.361 23.2562 24.71 23.9408C24.7745 23.9539 24.7745 24.0461 24.71 24.0593C21.361 24.7438 18.7438 27.361 18.0593 30.71C18.0461 30.7745 17.9539 30.7745 17.9408 30.71C17.2562 27.361 14.6391 24.7438 11.2901 24.0593C11.2256 24.0461 11.2256 23.9539 11.2901 23.9408C14.6391 23.2562 17.2562 20.6391 17.9408 17.2901Z" stroke="#00C2FF" stroke-width="3"/>
</svg>
