<svg width="48" height="48" viewBox="0 0 48 48" fill="none" xmlns="http://www.w3.org/2000/svg">
<path d="M35.9408 5.29009C35.9539 5.22557 36.0461 5.22557 36.0593 5.29009C36.7438 8.63906 39.361 11.2562 42.71 11.9408C42.7745 11.9539 42.7745 12.0461 42.71 12.0593C39.361 12.7438 36.7438 15.361 36.0593 18.71C36.0461 18.7745 35.9539 18.7745 35.9408 18.71C35.2562 15.361 32.6391 12.7438 29.2901 12.0593C29.2256 12.0461 29.2256 11.9539 29.2901 11.9408C32.6391 11.2562 35.2562 8.63906 35.9408 5.29009Z" stroke="#00C2FF" stroke-width="3"/>
<path d="M7 12H22M7 36H41M36 41V26M12 41V7" stroke="#202124" stroke-width="3" stroke-linecap="round"/>
</svg>
