<svg width="48" height="48" viewBox="0 0 48 48" fill="none" xmlns="http://www.w3.org/2000/svg">
<path d="M22.3307 20.7255C22.3307 20.7255 21.5558 13.2432 25.8516 8.94741C30.1473 4.65164 37.1121 4.65166 41.4079 8.94743C44.658 12.1975 46.0942 18.9888 43.3529 26.0001M19.0802 7.05568C14.9087 4.78888 9.58053 5.41946 6.05258 8.94741C1.75681 13.2432 -0.16929 23.7255 7.83073 32.7255C14.9463 40.7305 21.9823 42.7673 23.4511 43.1198C23.5287 43.1384 23.5675 43.1478 23.6372 43.1544C23.685 43.159 23.7756 43.1593 23.8235 43.1549C23.8932 43.1485 23.9328 43.1392 24.0119 43.1207C25.1048 42.864 29.24 41.7026 33.9999 37.9447" stroke="#202124" stroke-width="3" stroke-linecap="round"/>
<path d="M39.9376 26.5871C39.7291 25.5667 38.2711 25.5667 38.0626 26.5871C37.6019 28.8407 35.8407 30.6019 33.5871 31.0626C32.5667 31.2711 32.5667 32.7291 33.5871 32.9376C35.8407 33.3983 37.6019 35.1595 38.0626 37.4131C38.2711 38.4335 39.7291 38.4335 39.9376 37.4131C40.3983 35.1595 42.1595 33.3983 44.4131 32.9376C45.4335 32.7291 45.4335 31.2711 44.4131 31.0626C42.1595 30.6019 40.3983 28.8407 39.9376 26.5871Z" fill="#00C2FF"/>
</svg>
