<svg width="48" height="49" viewBox="0 0 48 49" fill="none" xmlns="http://www.w3.org/2000/svg">
<path d="M18.0626 0.765297C18.2711 -0.2551 19.7291 -0.255099 19.9376 0.765299C20.3983 3.01895 22.1595 4.78016 24.4131 5.24079C25.4335 5.44935 25.4335 6.90731 24.4131 7.11587C22.1595 7.5765 20.3983 9.3377 19.9376 11.5914C19.7291 12.6118 18.2711 12.6118 18.0626 11.5914C17.6019 9.3377 15.8407 7.5765 13.5871 7.11587C12.5667 6.90731 12.5667 5.44935 13.5871 5.24079C15.8407 4.78016 17.6019 3.01895 18.0626 0.765297Z" fill="#00C2FF"/>
<path d="M23.7997 24.2542L20.9318 20.1584C19.6647 18.3488 17.1705 17.909 15.3609 19.1761C13.5512 20.4432 13.1114 22.9374 14.3786 24.747L17.2464 28.8428L26.9972 42.7684C28.2643 44.578 30.7585 45.0178 32.5682 43.7507C34.3778 42.4836 34.8176 39.9894 33.5505 38.1798L23.7997 24.2542ZM17.2464 28.8428L23.7997 24.2542M29.173 3.23267C35.0007 4.28458 40.0275 7.85183 42.3852 13.3055C45.109 19.6059 43.5583 26.7766 39 32.0549M8.39517 11.2325C5.18827 15.3476 3.72558 20.4593 4.54936 25.385" stroke="#202124" stroke-width="3" stroke-linecap="round"/>
</svg>
