<svg width="48" height="48" viewBox="0 0 48 48" fill="none" xmlns="http://www.w3.org/2000/svg">
<path d="M37.9322 2.33143C37.9473 2.25769 38.0526 2.25769 38.0677 2.33143C38.85 6.15882 41.8411 9.14989 45.6684 9.93218C45.7422 9.94726 45.7422 10.0526 45.6684 10.0677C41.8411 10.85 38.85 13.8411 38.0677 17.6684C38.0526 17.7422 37.9473 17.7422 37.9322 17.6684C37.1499 13.8411 34.1588 10.85 30.3314 10.0677C30.2577 10.0526 30.2577 9.94726 30.3314 9.93218C34.1588 9.14989 37.1499 6.15882 37.9322 2.33143Z" stroke="#00C2FF" stroke-width="3"/>
<path d="M45.5 23C45.5 22.1716 44.8284 21.5 44 21.5C43.1716 21.5 42.5 22.1716 42.5 23H45.5ZM24 7.5C24.8284 7.5 25.5 6.82843 25.5 6C25.5 5.17157 24.8284 4.5 24 4.5V7.5ZM8.36808 39.1281L9.04906 37.7915V37.7915L8.36808 39.1281ZM4.87195 35.6319L3.53544 36.3129L4.87195 35.6319ZM39.6319 39.1281L38.9509 37.7915H38.9509L39.6319 39.1281ZM43.1281 35.6319L41.7915 34.9509V34.9509L43.1281 35.6319ZM4.87195 10.3681L3.53544 9.68709L3.53544 9.68709L4.87195 10.3681ZM8.36808 6.87195L7.68709 5.53544L7.68709 5.53544L8.36808 6.87195ZM15.8321 16.7519C15.1428 16.2924 14.2115 16.4787 13.7519 17.1679C13.2924 17.8572 13.4787 18.7885 14.1679 19.2481L15.8321 16.7519ZM20.2131 21.4754L19.381 22.7235V22.7235L20.2131 21.4754ZM27.5926 21.2058L28.5135 22.3898V22.3898L27.5926 21.2058ZM30.9209 20.5174C31.5748 20.0088 31.6926 19.0663 31.184 18.4124C30.6754 17.7585 29.733 17.6407 29.0791 18.1493L30.9209 20.5174ZM31.2 38.5H16.8V41.5H31.2V38.5ZM5.5 27.2V18.8H2.5V27.2H5.5ZM42.5 23V27.2H45.5V23H42.5ZM16.8 7.5H24V4.5H16.8V7.5ZM16.8 38.5C14.535 38.5 12.9265 38.4988 11.6678 38.396C10.4265 38.2946 9.65801 38.1018 9.04906 37.7915L7.68709 40.4646C8.78944 41.0262 9.99669 41.2695 11.4235 41.386C12.8327 41.5012 14.5845 41.5 16.8 41.5V38.5ZM2.5 27.2C2.5 29.4155 2.49883 31.1673 2.61398 32.5765C2.73055 34.0033 2.97376 35.2106 3.53544 36.3129L6.20846 34.9509C5.89818 34.342 5.70543 33.5735 5.60401 32.3322C5.50117 31.0735 5.5 29.465 5.5 27.2H2.5ZM9.04906 37.7915C7.82601 37.1684 6.83163 36.174 6.20846 34.9509L3.53544 36.3129C4.44624 38.1004 5.89955 39.5538 7.68709 40.4646L9.04906 37.7915ZM31.2 41.5C33.4155 41.5 35.1673 41.5012 36.5765 41.386C38.0033 41.2695 39.2106 41.0262 40.3129 40.4646L38.9509 37.7915C38.342 38.1018 37.5735 38.2946 36.3322 38.396C35.0735 38.4988 33.465 38.5 31.2 38.5V41.5ZM42.5 27.2C42.5 29.465 42.4988 31.0735 42.396 32.3322C42.2946 33.5735 42.1018 34.342 41.7915 34.9509L44.4646 36.3129C45.0262 35.2106 45.2695 34.0033 45.386 32.5765C45.5012 31.1673 45.5 29.4155 45.5 27.2H42.5ZM40.3129 40.4646C42.1005 39.5538 43.5538 38.1004 44.4646 36.3129L41.7915 34.9509C41.1684 36.174 40.174 37.1684 38.9509 37.7915L40.3129 40.4646ZM5.5 18.8C5.5 16.535 5.50117 14.9265 5.60401 13.6678C5.70543 12.4265 5.89818 11.658 6.20846 11.0491L3.53544 9.68709C2.97376 10.7894 2.73055 11.9967 2.61398 13.4235C2.49883 14.8327 2.5 16.5845 2.5 18.8H5.5ZM16.8 4.5C14.5845 4.5 12.8327 4.49883 11.4235 4.61398C9.99669 4.73055 8.78944 4.97376 7.68709 5.53544L9.04906 8.20846C9.65801 7.89818 10.4265 7.70543 11.6678 7.60401C12.9265 7.50117 14.535 7.5 16.8 7.5V4.5ZM6.20846 11.0491C6.83163 9.82601 7.82601 8.83163 9.04906 8.20846L7.68709 5.53544C5.89955 6.44624 4.44624 7.89955 3.53544 9.68709L6.20846 11.0491ZM14.1679 19.2481L19.381 22.7235L21.0451 20.2273L15.8321 16.7519L14.1679 19.2481ZM28.5135 22.3898L30.9209 20.5174L29.0791 18.1493L26.6717 20.0217L28.5135 22.3898ZM19.381 22.7235C22.1797 24.5893 25.8584 24.4549 28.5135 22.3898L26.6717 20.0217C25.0359 21.294 22.7694 21.3768 21.0451 20.2273L19.381 22.7235Z" fill="#202124"/>
</svg>
