<svg width="48" height="48" viewBox="0 0 48 48" fill="none" xmlns="http://www.w3.org/2000/svg">
<path d="M38.0626 2.58708C38.2711 1.56668 39.7291 1.56668 39.9376 2.58707C40.3983 4.84073 42.1595 6.60193 44.4131 7.06256C45.4335 7.27112 45.4335 8.72908 44.4131 8.93764C42.1595 9.39827 40.3983 11.1595 39.9376 13.4131C39.7291 14.4335 38.2711 14.4335 38.0626 13.4131C37.6019 11.1595 35.8407 9.39827 33.5871 8.93764C32.5667 8.72908 32.5667 7.27112 33.5871 7.06256C35.8407 6.60193 37.6019 4.84073 38.0626 2.58708Z" fill="#00C2FF"/>
<path d="M14.5 35V36.5H17.5V35H14.5ZM27.5 8.5C28.3284 8.5 29 7.82843 29 7C29 6.17157 28.3284 5.5 27.5 5.5V8.5ZM16.763 10.8221L18.0995 11.5031L16.763 10.8221ZM19.8221 7.76295L20.5031 9.09946L19.8221 7.76295ZM41.5 34C41.5 34.8284 42.1716 35.5 43 35.5C43.8284 35.5 44.5 34.8284 44.5 34H41.5ZM39.1779 18.763L38.4969 20.0995V20.0995L39.1779 18.763ZM42.237 21.8221L43.5736 21.1411V21.1411L42.237 21.8221ZM21.3332 18.2013L21.6903 19.6582V19.6582L21.3332 18.2013ZM14.5 27.1429C14.5 27.9713 15.1716 28.6429 16 28.6429C16.8284 28.6429 17.5 27.9713 17.5 27.1429H14.5ZM16.2013 23.3332L17.6582 23.6903V23.6903L16.2013 23.3332ZM14.5 37C14.5 39.4853 12.4853 41.5 10 41.5V44.5C14.1421 44.5 17.5 41.1421 17.5 37H14.5ZM10 41.5C7.51472 41.5 5.5 39.4853 5.5 37H2.5C2.5 41.1421 5.85786 44.5 10 44.5V41.5ZM5.5 37C5.5 34.5147 7.51472 32.5 10 32.5V29.5C5.85786 29.5 2.5 32.8579 2.5 37H5.5ZM10 32.5C12.4853 32.5 14.5 34.5147 14.5 37H17.5C17.5 32.8579 14.1421 29.5 10 29.5V32.5ZM17.5 35V18.2H14.5V35H17.5ZM27.2 8.5H27.5V5.5H27.2V8.5ZM17.5 18.2C17.5 16.2151 17.5012 14.8166 17.5904 13.7246C17.6782 12.6501 17.8437 12.005 18.0995 11.5031L15.4264 10.1411C14.9193 11.1365 14.7033 12.2202 14.6004 13.4803C14.4988 14.7228 14.5 16.2646 14.5 18.2H17.5ZM27.2 5.5C25.2646 5.5 23.7228 5.49883 22.4803 5.60035C21.2202 5.7033 20.1365 5.91927 19.1411 6.42644L20.5031 9.09946C21.005 8.84369 21.6501 8.67818 22.7246 8.59039C23.8166 8.50117 25.2151 8.5 27.2 8.5V5.5ZM18.0995 11.5031C18.6268 10.4682 19.4682 9.62677 20.5031 9.09946L19.1411 6.42644C17.5417 7.24137 16.2414 8.5417 15.4264 10.1411L18.0995 11.5031ZM25.1429 19.5H31.8V16.5H25.1429V19.5ZM41.5 29.2V34H44.5V29.2H41.5ZM31.8 19.5C33.7849 19.5 35.1834 19.5012 36.2754 19.5904C37.3499 19.6782 37.995 19.8437 38.4969 20.0995L39.8589 17.4264C38.8635 16.9193 37.7798 16.7033 36.5197 16.6004C35.2772 16.4988 33.7354 16.5 31.8 16.5V19.5ZM44.5 29.2C44.5 27.2646 44.5012 25.7228 44.3997 24.4803C44.2967 23.2202 44.0807 22.1365 43.5736 21.1411L40.9005 22.5031C41.1563 23.005 41.3218 23.6501 41.4096 24.7246C41.4988 25.8166 41.5 27.2151 41.5 29.2H44.5ZM38.4969 20.0995C39.5318 20.6268 40.3732 21.4682 40.9005 22.5031L43.5736 21.1411C42.7586 19.5417 41.4583 18.2414 39.8589 17.4264L38.4969 20.0995ZM25.1429 16.5C23.239 16.5 22.0176 16.4891 20.976 16.7445L21.6903 19.6582C22.2913 19.5109 23.0621 19.5 25.1429 19.5V16.5ZM17.5 27.1429C17.5 25.0621 17.5109 24.2913 17.6582 23.6903L14.7445 22.976C14.4891 24.0176 14.5 25.239 14.5 27.1429H17.5ZM20.976 16.7445C17.9002 17.4986 15.4986 19.9002 14.7445 22.976L17.6582 23.6903C18.1462 21.7001 19.7001 20.1462 21.6903 19.6582L20.976 16.7445ZM41.5 35C41.5 37.4853 39.4853 39.5 37 39.5V42.5C41.1421 42.5 44.5 39.1421 44.5 35H41.5ZM37 39.5C34.5147 39.5 32.5 37.4853 32.5 35H29.5C29.5 39.1421 32.8579 42.5 37 42.5V39.5ZM32.5 35C32.5 32.5147 34.5147 30.5 37 30.5V27.5C32.8579 27.5 29.5 30.8579 29.5 35H32.5ZM37 30.5C39.4853 30.5 41.5 32.5147 41.5 35H44.5C44.5 30.8579 41.1421 27.5 37 27.5V30.5Z" fill="#202124"/>
</svg>
