<svg width="48" height="48" viewBox="0 0 48 48" fill="none" xmlns="http://www.w3.org/2000/svg">
<path d="M10.9376 15.5871C10.7291 14.5667 9.27112 14.5667 9.06256 15.5871C8.60193 17.8407 6.84073 19.6019 4.58708 20.0626C3.56668 20.2711 3.56668 21.7291 4.58707 21.9376C6.84073 22.3983 8.60193 24.1595 9.06256 26.4131C9.27112 27.4335 10.7291 27.4335 10.9376 26.4131C11.3983 24.1595 13.1595 22.3983 15.4131 21.9376C16.4335 21.7291 16.4335 20.2711 15.4131 20.0626C13.1595 19.6019 11.3983 17.8407 10.9376 15.5871Z" fill="#00C2FF"/>
<path d="M3.43744 7.75215C3.56258 7.13991 4.43735 7.13991 4.56249 7.75215C4.83887 9.10434 5.89559 10.1611 7.24778 10.4374C7.86002 10.5626 7.86002 11.4374 7.24778 11.5625C5.89559 11.8389 4.83887 12.8956 4.56249 14.2478C4.43735 14.86 3.56258 14.86 3.43744 14.2478C3.16106 12.8956 2.10434 11.8389 0.752147 11.5625C0.139909 11.4374 0.139909 10.5626 0.752148 10.4374C2.10434 10.1611 3.16106 9.10434 3.43744 7.75215Z" fill="#00C2FF"/>
<path d="M18.2171 42.3246L18.293 43.8227V43.8227L18.2171 42.3246ZM27.9503 41.831L27.8743 40.333L27.9503 41.831ZM37.1603 34.4318L35.7138 34.0348V34.0348L37.1603 34.4318ZM37.5418 33.0419L38.9883 33.4389V33.4389L37.5418 33.0419ZM34.9489 23.2464L33.8882 24.3071V24.3071L34.9489 23.2464ZM26.7177 15.0152L27.7783 13.9546V13.9546L26.7177 15.0152ZM16.9222 12.4223L17.3192 13.8688V13.8688L16.9222 12.4223ZM15.141 11.3557C14.3421 11.575 13.8722 12.4003 14.0915 13.1992C14.3107 13.9981 15.1361 14.468 15.935 14.2487L15.141 11.3557ZM9.17268 31.1312C9.21464 30.3038 8.57794 29.5991 7.75057 29.5571C6.92321 29.5152 6.21849 30.1519 6.17653 30.9792L9.17268 31.1312ZM7.63953 31.747L6.14145 31.6711V31.6711L7.63953 31.747ZM23.5588 12.2975L24.2374 10.9597L24.2374 10.9597L23.5588 12.2975ZM21.0119 11.6233L20.9398 13.1215H20.9398L21.0119 11.6233ZM38.3408 28.9522L36.8426 29.0243V29.0243L38.3408 28.9522ZM37.6667 26.4053L39.0044 25.7267L39.0044 25.7267L37.6667 26.4053ZM32.9668 41.1367L33.5871 42.5024V42.5024L32.9668 41.1367ZM35.4013 39.1809L36.6013 40.0809L36.6013 40.0809L35.4013 39.1809ZM10.9738 41.9147L10.32 43.2647H10.32L10.9738 41.9147ZM8.04941 38.9904L6.69938 39.6441H6.69938L8.04941 38.9904ZM9.72615 38.1165C9.14036 38.7023 9.14036 39.652 9.72615 40.2378C10.3119 40.8236 11.2617 40.8236 11.8475 40.2378L9.72615 38.1165ZM21.4995 30.5858C22.0853 30 22.0853 29.0503 21.4995 28.4645C20.9137 27.8787 19.9639 27.8787 19.3782 28.4645L21.4995 30.5858ZM36.773 25.0705L35.7124 26.1311L36.5976 27.0163L37.6268 26.3038L36.773 25.0705ZM24.8936 13.1911L23.6603 12.3373L22.9478 13.3665L23.833 14.2517L24.8936 13.1911ZM43.9553 16.7191L45.4048 16.3332V16.3332L43.9553 16.7191ZM39.8047 22.9716L38.9509 21.7383V21.7383L39.8047 22.9716ZM43.6965 19.5888L42.3394 18.9498V18.9498L43.6965 19.5888ZM33.245 6.00882L33.6309 4.55931V4.55931L33.245 6.00882ZM26.9925 10.1594L28.2258 11.0132V11.0132L26.9925 10.1594ZM30.3753 6.26758L31.0143 7.62467V7.62467L30.3753 6.26758ZM18.293 43.8227L28.0262 43.3291L27.8743 40.333L18.1411 40.8265L18.293 43.8227ZM38.6068 34.8288L38.9883 33.4389L36.0953 32.6449L35.7138 34.0348L38.6068 34.8288ZM36.0096 22.1858L27.7783 13.9546L25.657 16.0759L33.8882 24.3071L36.0096 22.1858ZM16.5252 10.9758L15.141 11.3557L15.935 14.2487L17.3192 13.8688L16.5252 10.9758ZM6.17653 30.9792L6.14145 31.6711L9.1376 31.823L9.17268 31.1312L6.17653 30.9792ZM27.7783 13.9546C26.3413 12.5175 25.3963 11.5475 24.2374 10.9597L22.8803 13.6352C23.5117 13.9555 24.0758 14.4947 25.657 16.0759L27.7783 13.9546ZM17.3192 13.8688C19.4756 13.277 20.2326 13.0875 20.9398 13.1215L21.0841 10.125C19.7862 10.0625 18.485 10.4379 16.5252 10.9758L17.3192 13.8688ZM24.2374 10.9597C23.2569 10.4624 22.1823 10.1779 21.0841 10.125L20.9398 13.1215C21.6156 13.1541 22.2769 13.3291 22.8803 13.6352L24.2374 10.9597ZM38.9883 33.4389C39.5262 31.4791 39.9016 30.178 39.8391 28.88L36.8426 29.0243C36.8766 29.7315 36.6871 30.4885 36.0953 32.6449L38.9883 33.4389ZM33.8882 24.3071C35.4695 25.8883 36.0087 26.4525 36.3289 27.0838L39.0044 25.7267C38.4166 24.5678 37.4466 23.6228 36.0096 22.1858L33.8882 24.3071ZM39.8391 28.88C39.7862 27.7818 39.5018 26.7073 39.0044 25.7267L36.3289 27.0838C36.635 27.6872 36.81 28.3485 36.8426 29.0243L39.8391 28.88ZM28.0262 43.3291C30.5154 43.2029 32.1743 43.1441 33.5871 42.5024L32.3465 39.771C31.5787 40.1197 30.6201 40.1937 27.8743 40.333L28.0262 43.3291ZM35.7138 34.0348C34.9862 36.6861 34.7074 37.6062 34.2013 38.2808L36.6013 40.0809C37.5324 38.8396 37.9472 37.2323 38.6068 34.8288L35.7138 34.0348ZM33.5871 42.5024C34.7791 41.961 35.8157 41.1283 36.6013 40.0809L34.2013 38.2808C33.7179 38.9253 33.08 39.4378 32.3465 39.771L33.5871 42.5024ZM18.1411 40.8265C16.185 40.9257 14.8118 40.9941 13.7436 40.9577C12.691 40.9219 12.0841 40.7857 11.6275 40.5647L10.32 43.2647C11.3162 43.7472 12.4007 43.9138 13.6416 43.956C14.8667 43.9977 16.3888 43.9192 18.293 43.8227L18.1411 40.8265ZM6.14145 31.6711C6.04489 33.5753 5.96644 35.0974 6.00811 36.3225C6.05031 37.5634 6.21694 38.6479 6.69938 39.6441L9.39945 38.3366C9.17837 37.8801 9.04218 37.2731 9.00638 36.2206C8.97004 35.1523 9.03841 33.7791 9.1376 31.823L6.14145 31.6711ZM11.6275 40.5647C10.6553 40.0938 9.87026 39.3088 9.39945 38.3366L6.69938 39.6441C7.46445 41.224 8.74009 42.4997 10.32 43.2647L11.6275 40.5647ZM11.8475 40.2378L21.4995 30.5858L19.3782 28.4645L9.72615 38.1165L11.8475 40.2378ZM36.2088 10.2935C36.7927 10.8773 37.3662 11.4508 37.9397 12.0244C38.5132 12.5979 39.0868 13.1714 39.6706 13.7553L41.792 11.6339C41.2081 11.0501 40.6346 10.4765 40.0611 9.90303C39.4875 9.32953 38.914 8.75602 38.3302 8.17214L36.2088 10.2935ZM38.9509 21.7383L35.9192 23.8372L37.6268 26.3038L40.6586 24.2049L38.9509 21.7383ZM37.8337 24.0098L25.9543 12.1304L23.833 14.2517L35.7124 26.1311L37.8337 24.0098ZM26.1269 14.0449L28.2258 11.0132L25.7592 9.30554L23.6603 12.3373L26.1269 14.0449ZM39.6706 13.7553C40.6675 14.7521 41.3457 15.4322 41.8192 15.9959C42.2839 16.5491 42.4425 16.8673 42.5058 17.105L45.4048 16.3332C45.1776 15.4799 44.702 14.7637 44.1163 14.0663C43.5393 13.3794 42.7508 12.5928 41.792 11.6339L39.6706 13.7553ZM40.6586 24.2049C41.7734 23.433 42.6899 22.8002 43.3805 22.2276C44.0815 21.6463 44.6774 21.0267 45.0536 20.2278L42.3394 18.9498C42.2346 19.1724 42.0217 19.457 41.4655 19.9182C40.8989 20.3881 40.11 20.9359 38.9509 21.7383L40.6586 24.2049ZM42.5058 17.105C42.6696 17.7203 42.6107 18.3737 42.3394 18.9498L45.0536 20.2278C45.6262 19.0116 45.7506 17.6322 45.4048 16.3332L42.5058 17.105ZM38.3302 8.17214C37.3713 7.21329 36.5847 6.42476 35.8978 5.84778C35.2004 5.26205 34.4842 4.78649 33.6309 4.55931L32.8591 7.45832C33.0968 7.5216 33.4149 7.68019 33.9682 8.14492C34.5319 8.61839 35.212 9.29663 36.2088 10.2935L38.3302 8.17214ZM28.2258 11.0132C29.0282 9.85414 29.576 9.06522 30.0459 8.49858C30.5071 7.94239 30.7917 7.72945 31.0143 7.62467L29.7363 4.91049C28.9374 5.28664 28.3178 5.88264 27.7365 6.58364C27.1639 7.27418 26.531 8.19068 25.7592 9.30554L28.2258 11.0132ZM33.6309 4.55931C32.3319 4.21346 30.9525 4.33785 29.7363 4.91049L31.0143 7.62467C31.5903 7.35342 32.2438 7.2945 32.8591 7.45832L33.6309 4.55931Z" fill="#202124"/>
</svg>
