<svg width="48" height="48" viewBox="0 0 48 48" fill="none" xmlns="http://www.w3.org/2000/svg">
<path d="M36.9407 29.2901C36.9539 29.2255 37.0461 29.2255 37.0593 29.2901C37.7438 32.639 40.361 35.2562 43.7099 35.9407C43.7745 35.9539 43.7745 36.0461 43.7099 36.0593C40.361 36.7438 37.7438 39.361 37.0593 42.7099C37.0461 42.7745 36.9539 42.7745 36.9407 42.7099C36.2562 39.361 33.639 36.7438 30.2901 36.0593C30.2255 36.0461 30.2255 35.9539 30.2901 35.9407C33.639 35.2562 36.2562 32.639 36.9407 29.2901Z" stroke="#00C2FF" stroke-width="3"/>
<path d="M6.00006 19.0001V17.5001H4.50006V19.0001H6.00006ZM42.5001 26.0001C42.5001 26.8285 43.1716 27.5001 44.0001 27.5001C44.8285 27.5001 45.5001 26.8285 45.5001 26.0001H42.5001ZM25.5001 43.5001C26.3285 43.5001 27.0001 42.8285 27.0001 42.0001C27.0001 41.1716 26.3285 40.5001 25.5001 40.5001V43.5001ZM6.87201 37.632L5.5355 38.313L6.87201 37.632ZM10.3681 41.1281L11.0491 39.7916V39.7916L10.3681 41.1281ZM41.816 19.436L42.497 18.0995H42.497L41.816 19.436ZM43.5641 21.1841L42.2276 21.8651V21.8651L43.5641 21.1841ZM32.5527 5.04114C32.7526 4.23719 32.2629 3.42342 31.459 3.22353C30.655 3.02364 29.8413 3.51333 29.6414 4.31728L32.5527 5.04114ZM27.265 13.8751C27.0651 14.6791 27.5548 15.4929 28.3587 15.6928C29.1627 15.8926 29.9765 15.403 30.1763 14.599L27.265 13.8751ZM20.735 7.12492C20.9349 6.32097 20.4452 5.50719 19.6413 5.30731C18.8373 5.10742 18.0236 5.59711 17.8237 6.40106L20.735 7.12492ZM15.4473 15.9589C15.2474 16.7629 15.7371 17.5766 16.541 17.7765C17.345 17.9764 18.1588 17.4867 18.3587 16.6828L15.4473 15.9589ZM6.06981 18.2312L4.5926 18.4916L4.85307 19.9688L6.33028 19.7084L6.06981 18.2312ZM40.5381 12.1535L40.2776 10.6763L40.5381 12.1535ZM36.0208 3.81115L36.2813 5.28836L36.0208 3.81115ZM13.3702 7.80506L13.1098 6.32785L13.3702 7.80506ZM8.23391 9.1745L7.42796 7.90941L8.23391 9.1745ZM5.59993 12.9362L7.06438 13.2609L5.59993 12.9362ZM6.00006 20.5001H37.6001V17.5001H6.00006V20.5001ZM7.50006 29.2001V19.0001H4.50006V29.2001H7.50006ZM42.5001 25.4001V26.0001H45.5001V25.4001H42.5001ZM25.5001 40.5001H18.8001V43.5001H25.5001V40.5001ZM4.50006 29.2001C4.50006 31.4155 4.49889 33.1673 4.61404 34.5766C4.73061 36.0034 4.97382 37.2106 5.5355 38.313L8.20852 36.951C7.89825 36.3421 7.70549 35.5736 7.60407 34.3323C7.50123 33.0735 7.50006 31.465 7.50006 29.2001H4.50006ZM18.8001 40.5001C16.5351 40.5001 14.9266 40.4989 13.6678 40.396C12.4266 40.2946 11.6581 40.1019 11.0491 39.7916L9.68715 42.4646C10.7895 43.0263 11.9968 43.2695 13.4235 43.3861C14.8328 43.5012 16.5846 43.5001 18.8001 43.5001V40.5001ZM5.5355 38.313C6.4463 40.1005 7.89961 41.5538 9.68715 42.4646L11.0491 39.7916C9.82607 39.1684 8.8317 38.1741 8.20852 36.951L5.5355 38.313ZM37.6001 20.5001C38.7449 20.5001 39.5133 20.5012 40.1051 20.5496C40.6794 20.5965 40.9539 20.6803 41.135 20.7725L42.497 18.0995C41.8225 17.7558 41.1092 17.6216 40.3494 17.5595C39.6071 17.4989 38.6954 17.5001 37.6001 17.5001V20.5001ZM45.5001 25.4001C45.5001 24.3047 45.5012 23.393 45.4406 22.6507C45.3785 21.891 45.2443 21.1776 44.9006 20.5031L42.2276 21.8651C42.3199 22.0462 42.4036 22.3208 42.4505 22.895C42.4989 23.4868 42.5001 24.2552 42.5001 25.4001H45.5001ZM41.135 20.7725C41.6054 21.0122 41.9879 21.3947 42.2276 21.8651L44.9006 20.5031C44.3733 19.4682 43.5319 18.6268 42.497 18.0995L41.135 20.7725ZM29.6414 4.31728L27.265 13.8751L30.1763 14.599L32.5527 5.04114L29.6414 4.31728ZM17.8237 6.40106L15.4473 15.9589L18.3587 16.6828L20.735 7.12492L17.8237 6.40106ZM13.6307 9.28227L36.2813 5.28836L35.7604 2.33394L13.1098 6.32785L13.6307 9.28227ZM40.2776 10.6763L5.80934 16.754L6.33028 19.7084L40.7985 13.6307L40.2776 10.6763ZM41.4943 8.93858C41.6382 9.75442 41.0934 10.5324 40.2776 10.6763L40.7985 13.6307C43.2461 13.1991 44.8803 10.8652 44.4488 8.41764L41.4943 8.93858ZM36.2813 5.28836C38.7288 4.8568 41.0628 6.49106 41.4943 8.93858L44.4488 8.41764C43.7295 4.33843 39.8396 1.61466 35.7604 2.33394L36.2813 5.28836ZM13.1098 6.32785C11.7534 6.56701 10.662 6.75863 9.78667 6.9753C8.89825 7.19522 8.1259 7.46478 7.42796 7.90941L9.03986 10.4396C9.34849 10.243 9.76772 10.0705 10.5075 9.88741C11.2604 9.70104 12.2339 9.52856 13.6307 9.28227L13.1098 6.32785ZM7.54702 17.9707C7.30073 16.5739 7.12985 15.6001 7.04747 14.8289C6.96653 14.0711 6.98518 13.6181 7.06438 13.2609L4.13549 12.6116C3.95638 13.4195 3.96723 14.2374 4.06444 15.1475C4.16021 16.0441 4.35343 17.1353 4.5926 18.4916L7.54702 17.9707ZM7.42796 7.90941C5.75035 8.97817 4.56601 10.6696 4.13549 12.6116L7.06438 13.2609C7.32269 12.0957 8.0333 11.0808 9.03986 10.4396L7.42796 7.90941Z" fill="#202124"/>
</svg>
