<svg width="48" height="48" viewBox="0 0 48 48" fill="none" xmlns="http://www.w3.org/2000/svg">
<path d="M34.0626 7.58694C34.2711 6.56654 35.7291 6.56654 35.9376 7.58694C36.3983 9.84059 38.1595 11.6018 40.4131 12.0624C41.4335 12.271 41.4335 13.7289 40.4131 13.9375C38.1595 14.3981 36.3983 16.1593 35.9376 18.413C35.7291 19.4334 34.2711 19.4334 34.0626 18.413C33.6019 16.1593 31.8407 14.3981 29.5871 13.9375C28.5667 13.7289 28.5667 12.271 29.5871 12.0624C31.8407 11.6018 33.6019 9.84059 34.0626 7.58694Z" fill="#00C2FF"/>
<path d="M41.4376 1.75215C41.5627 1.13991 42.4375 1.13991 42.5626 1.75215C42.839 3.10434 43.8957 4.16106 45.2479 4.43744C45.8602 4.56258 45.8602 5.43735 45.2479 5.56249C43.8957 5.83887 42.839 6.89559 42.5626 8.24778C42.4375 8.86002 41.5627 8.86002 41.4376 8.24778C41.1612 6.89559 40.1045 5.83887 38.7523 5.56249C38.14 5.43735 38.14 4.56258 38.7523 4.43744C40.1045 4.16106 41.1612 3.10434 41.4376 1.75215Z" fill="#00C2FF"/>
<path d="M28.3172 8.53503C29.0549 8.9121 29.9585 8.61981 30.3356 7.88217C30.7127 7.14454 30.4204 6.24089 29.6828 5.86381L28.3172 8.53503ZM36.0293 23.4082C36.2548 22.6111 35.7913 21.7821 34.9942 21.5566C34.197 21.3312 33.368 21.7946 33.1426 22.5918L36.0293 23.4082ZM10.1289 28.0122C9.58334 27.3888 8.6357 27.3256 8.01224 27.8711C7.38879 28.4167 7.32561 29.3643 7.87113 29.9878L10.1289 28.0122ZM10.732 30.9794L11.8608 29.9916V29.9916L10.732 30.9794ZM37.268 30.9794L38.3969 31.9671V31.9671L37.268 30.9794ZM40.1289 29.9878C40.6744 29.3643 40.6112 28.4167 39.9878 27.8711C39.3643 27.3256 38.4167 27.3888 37.8711 28.0122L40.1289 29.9878ZM25.5 38C25.5 37.1716 24.8284 36.5 24 36.5C23.1716 36.5 22.5 37.1716 22.5 38H25.5ZM22.5 43C22.5 43.8284 23.1716 44.5 24 44.5C24.8284 44.5 25.5 43.8284 25.5 43H22.5ZM20 42.5C19.1716 42.5 18.5 43.1716 18.5 44C18.5 44.8284 19.1716 45.5 20 45.5V42.5ZM28 45.5C28.8284 45.5 29.5 44.8284 29.5 44C29.5 43.1716 28.8284 42.5 28 42.5V45.5ZM14.5 20V17H11.5V20H14.5ZM24 29.5C18.7533 29.5 14.5 25.2467 14.5 20H11.5C11.5 26.9036 17.0964 32.5 24 32.5V29.5ZM24 4.5C17.0964 4.5 11.5 10.0964 11.5 17H14.5C14.5 11.7533 18.7533 7.5 24 7.5V4.5ZM24 7.5C25.5576 7.5 27.0236 7.87371 28.3172 8.53503L29.6828 5.86381C27.9762 4.99141 26.0433 4.5 24 4.5V7.5ZM33.1426 22.5918C32.0145 26.58 28.3463 29.5 24 29.5V32.5C29.7239 32.5 34.5456 28.6541 36.0293 23.4082L33.1426 22.5918ZM7.87113 29.9878L9.6031 31.9671L11.8608 29.9916L10.1289 28.0122L7.87113 29.9878ZM38.3969 31.9671L40.1289 29.9878L37.8711 28.0122L36.1392 29.9916L38.3969 31.9671ZM24 38.5C29.5164 38.5 34.7643 36.1187 38.3969 31.9671L36.1392 29.9916C33.0763 33.4921 28.6513 35.5 24 35.5V38.5ZM9.6031 31.9671C13.2357 36.1187 18.4836 38.5 24 38.5V35.5C19.3487 35.5 14.9238 33.4921 11.8608 29.9916L9.6031 31.9671ZM22.5 38V43H25.5V38H22.5ZM20 45.5H28V42.5H20V45.5Z" fill="#202124"/>
</svg>
