<svg width="48" height="48" viewBox="0 0 48 48" fill="none" xmlns="http://www.w3.org/2000/svg">
<path d="M10.9408 30.2896C10.9539 30.2251 11.0461 30.2251 11.0593 30.2896C11.7438 33.6386 14.361 36.2558 17.71 36.9403C17.7745 36.9535 17.7745 37.0456 17.71 37.0588C14.361 37.7433 11.7438 40.3605 11.0593 43.7095C11.0461 43.774 10.9539 43.774 10.9408 43.7095C10.2562 40.3605 7.63906 37.7433 4.29009 37.0588C4.22557 37.0456 4.22557 36.9535 4.29009 36.9403C7.63906 36.2558 10.2562 33.6386 10.9408 30.2896Z" stroke="#F0FFD1" stroke-width="3"/>
<path d="M4.5 24C4.5 24.8284 5.17157 25.5 6 25.5C6.82843 25.5 7.5 24.8284 7.5 24H4.5ZM24 40.5C23.1716 40.5 22.5 41.1716 22.5 42C22.5 42.8284 23.1716 43.5 24 43.5V40.5ZM34.4486 21.0126L34.3645 22.5102H34.3645L34.4486 21.0126ZM41.9874 28.5514L43.4851 28.4673V28.4673L41.9874 28.5514ZM19.4486 6.01259L19.3645 7.51023V7.51023L19.4486 6.01259ZM26.9874 13.5514L28.4851 13.4673V13.4673L26.9874 13.5514ZM41.7603 35.9438L40.3052 35.5794V35.5794L41.7603 35.9438ZM35.9438 41.7603L35.5794 40.3052V40.3052L35.9438 41.7603ZM27.0094 15.3364L28.5071 15.2523V15.2523L27.0094 15.3364ZM32.6636 20.9906L32.7477 19.4929L32.7477 19.4929L32.6636 20.9906ZM12.0562 6.23975L11.6917 4.7847L12.0562 6.23975ZM6.23975 12.0562L4.7847 11.6917L6.23975 12.0562ZM40.5 32C40.5 32.8284 41.1716 33.5 42 33.5C42.8284 33.5 43.5 32.8284 43.5 32H40.5ZM16.5 7.5H18.4286V4.5H16.5V7.5ZM40.5 29.5714V31.5H43.5V29.5714H40.5ZM7.5 24V16.5H4.5V24H7.5ZM31.5 40.5H24V43.5H31.5V40.5ZM33.4286 22.5C33.9795 22.5 34.193 22.5006 34.3645 22.5102L34.5327 19.5149C34.256 19.4994 33.9388 19.5 33.4286 19.5V22.5ZM43.5 29.5714C43.5 29.0612 43.5006 28.744 43.4851 28.4673L40.4898 28.6355C40.4994 28.807 40.5 29.0205 40.5 29.5714H43.5ZM34.3645 22.5102C37.6675 22.6957 40.3043 25.3325 40.4898 28.6355L43.4851 28.4673C43.2139 23.6398 39.3602 19.7861 34.5327 19.5149L34.3645 22.5102ZM18.4286 7.5C18.9795 7.5 19.193 7.50059 19.3645 7.51023L19.5327 4.51495C19.256 4.49941 18.9388 4.5 18.4286 4.5V7.5ZM28.5 14.5714C28.5 14.0612 28.5006 13.7441 28.4851 13.4673L25.4898 13.6355C25.4994 13.807 25.5 14.0205 25.5 14.5714H28.5ZM19.3645 7.51023C22.6675 7.69572 25.3043 10.3325 25.4898 13.6355L28.4851 13.4673C28.2139 8.63982 24.3602 4.78605 19.5327 4.51495L19.3645 7.51023ZM40.5 31.5C40.5 33.9148 40.4887 34.8469 40.3052 35.5794L43.2153 36.3083C43.5113 35.1265 43.5 33.7341 43.5 31.5H40.5ZM31.5 43.5C33.7341 43.5 35.1265 43.5113 36.3083 43.2153L35.5794 40.3052C34.8469 40.4887 33.9148 40.5 31.5 40.5V43.5ZM40.3052 35.5794C39.7224 37.9059 37.9059 39.7224 35.5794 40.3052L36.3083 43.2153C39.7086 42.3636 42.3636 39.7086 43.2153 36.3083L40.3052 35.5794ZM25.5 14.5714C25.5 14.949 25.4994 15.1998 25.5118 15.4205L28.5071 15.2523C28.5006 15.1368 28.5 14.9897 28.5 14.5714H25.5ZM33.4286 19.5C33.0103 19.5 32.8632 19.4994 32.7477 19.4929L32.5795 22.4882C32.8002 22.5006 33.051 22.5 33.4286 22.5V19.5ZM25.5118 15.4205C25.7258 19.2317 28.7683 22.2742 32.5795 22.4882L32.7477 19.4929C30.461 19.3645 28.6355 17.539 28.5071 15.2523L25.5118 15.4205ZM16.5 4.5C14.2659 4.5 12.8735 4.48867 11.6917 4.7847L12.4206 7.6948C13.1531 7.51133 14.0852 7.5 16.5 7.5V4.5ZM7.5 16.5C7.5 14.0852 7.51133 13.1531 7.6948 12.4206L4.7847 11.6917C4.48867 12.8735 4.5 14.2659 4.5 16.5H7.5ZM11.6917 4.7847C8.2914 5.63643 5.63643 8.2914 4.7847 11.6917L7.6948 12.4206C8.27756 10.0941 10.0941 8.27756 12.4206 7.6948L11.6917 4.7847ZM16.5 7.5H22V4.5H16.5V7.5ZM40.5 26V32H43.5V26H40.5ZM22 7.5C32.2173 7.5 40.5 15.7827 40.5 26H43.5C43.5 14.1259 33.8741 4.5 22 4.5V7.5Z" fill="#B3FF10"/>
</svg>
