<svg width="48" height="48" viewBox="0 0 48 48" fill="none" xmlns="http://www.w3.org/2000/svg">
<path d="M32.9323 26.3317C32.9474 26.2579 33.0527 26.2579 33.0678 26.3317C33.8501 30.1591 36.8412 33.1501 40.6686 33.9324C40.7423 33.9475 40.7423 34.0529 40.6686 34.0679C36.8412 34.8502 33.8501 37.8413 33.0678 41.6687C33.0527 41.7424 32.9474 41.7424 32.9323 41.6687C32.15 37.8413 29.1589 34.8502 25.3316 34.0679C25.2578 34.0529 25.2578 33.9475 25.3316 33.9324C29.1589 33.1501 32.15 30.1591 32.9323 26.3317Z" stroke="#F0FFD1" stroke-width="3"/>
<path d="M41.4374 21.7521C41.5626 21.1399 42.4374 21.1399 42.5625 21.7521C42.8389 23.1043 43.8956 24.1611 45.2478 24.4374C45.86 24.5626 45.86 25.4374 45.2478 25.5625C43.8956 25.8389 42.8389 26.8956 42.5625 28.2478C42.4374 28.86 41.5626 28.86 41.4374 28.2478C41.1611 26.8956 40.1043 25.8389 38.7521 25.5625C38.1399 25.4374 38.1399 24.5626 38.7521 24.4374C40.1043 24.1611 41.1611 23.1043 41.4374 21.7521Z" fill="#F0FFD1"/>
<path d="M23 42C13.0589 42 5 38.4183 5 34C5 29.5817 13.0589 26 23 26M22 21C18.6863 21 16 18.3137 16 15V11C16 7.68629 18.6863 5 22 5C25.3137 5 28 7.68629 28 11V15C28 18.3137 25.3137 21 22 21Z" stroke="#B3FF10" stroke-width="3" stroke-linecap="round"/>
</svg>
