<svg width="48" height="48" viewBox="0 0 48 48" fill="none" xmlns="http://www.w3.org/2000/svg">
<path d="M18.8236 6.6815C19.6793 6.45222 20.9713 6.27776 22.0266 6.16223C22.4757 6.11306 22.7003 6.08847 23.1812 6.07457C23.4799 6.06593 24.1646 6.08273 24.4625 6.10601C24.9422 6.14348 25.1599 6.17819 25.5953 6.2476C27.5286 6.55584 30.5369 7.14474 31.9999 7.99997M31.0803 21.5146L29.8625 24.9167C29.3299 26.4045 29.0637 27.1485 28.6366 27.7781C28.258 28.3362 27.7882 28.8264 27.2467 29.2283C26.6357 29.6817 25.9037 29.9793 24.4398 30.5744L19.8635 32.435C18.9974 32.7871 18.5644 32.9632 18.2452 32.8816C17.9669 32.8104 17.7327 32.623 17.6022 32.3671C17.4524 32.0737 17.5291 31.6125 17.6825 30.6903L18.4041 26.3522C18.6943 24.6077 18.8394 23.7354 19.202 22.9735C19.5231 22.2988 19.9675 21.69 20.5122 21.1785C21.1272 20.6009 21.9137 20.1968 23.4868 19.3886L36.0723 12.9222C36.8104 12.543 37.1794 12.3534 37.5974 12.3276C37.9344 12.3067 38.3618 12.3994 38.6598 12.5578C39.0296 12.7545 39.2516 13.0351 39.6957 13.5964C41.3365 15.6707 42.5904 18.1065 43.3185 20.8236C46.1773 31.493 39.8457 42.4597 29.1763 45.3185C18.507 48.1774 7.54028 41.8457 4.68144 31.1764C3.94355 28.4226 3.81793 25.6489 4.22114 23" stroke="#B3FF10" stroke-width="3" stroke-linecap="round"/>
<path d="M9.94075 6.2896C9.95394 6.22508 10.0461 6.22508 10.0593 6.2896C10.7438 9.63857 13.361 12.2558 16.71 12.9403C16.7745 12.9535 16.7745 13.0456 16.71 13.0588C13.361 13.7433 10.7438 16.3605 10.0593 19.7095C10.0461 19.774 9.95394 19.774 9.94075 19.7095C9.25625 16.3605 6.63906 13.7433 3.29009 13.0588C3.22557 13.0456 3.22557 12.9535 3.29009 12.9403C6.63906 12.2558 9.25625 9.63857 9.94075 6.2896Z" stroke="#F0FFD1" stroke-width="3"/>
</svg>
