<svg width="48" height="48" viewBox="0 0 48 48" fill="none" xmlns="http://www.w3.org/2000/svg">
<path d="M17.9408 10.2896C17.9539 10.2251 18.0461 10.2251 18.0593 10.2896C18.7438 13.6386 21.361 16.2558 24.71 16.9403C24.7745 16.9535 24.7745 17.0456 24.71 17.0588C21.361 17.7433 18.7438 20.3605 18.0593 23.7095C18.0461 23.774 17.9539 23.774 17.9408 23.7095C17.2562 20.3605 14.6391 17.7433 11.2901 17.0588C11.2256 17.0456 11.2256 16.9535 11.2901 16.9403C14.6391 16.2558 17.2562 13.6386 17.9408 10.2896Z" stroke="#F0FFD1" stroke-width="3"/>
<path d="M9.43744 4.75215C9.56258 4.13991 10.4374 4.13991 10.5625 4.75215C10.8389 6.10434 11.8956 7.16106 13.2478 7.43744C13.86 7.56258 13.86 8.43735 13.2478 8.56249C11.8956 8.83887 10.8389 9.89559 10.5625 11.2478C10.4374 11.86 9.56258 11.86 9.43744 11.2478C9.16106 9.89559 8.10434 8.83887 6.75215 8.56249C6.13991 8.43735 6.13991 7.56258 6.75215 7.43744C8.10434 7.16106 9.16106 6.10434 9.43744 4.75215Z" fill="#F0FFD1"/>
<path d="M18.4999 41.9998C17.6715 41.9998 16.9999 42.6713 16.9999 43.4998C16.9999 44.3282 17.6715 44.9998 18.4999 44.9998V41.9998ZM38 44.9998C38.8284 44.9998 39.5 44.3282 39.5 43.4998C39.5 42.6713 38.8284 41.9998 38 41.9998V44.9998ZM35.9999 10.9998L37.0606 9.93911L37.0606 9.93911L35.9999 10.9998ZM37.7781 12.7779L36.7175 13.8386L36.7175 13.8386L37.7781 12.7779ZM13.6358 41.6219L12.5713 42.6786H12.5713L13.6358 41.6219ZM10.5891 38.5527L11.6537 37.4959V37.4959L10.5891 38.5527ZM10.6152 24.3845L9.55451 23.3239H9.55451L10.6152 24.3845ZM24.4974 41.6288L25.5624 42.6851V42.6851L24.4974 41.6288ZM19.9214 43.5219L19.9289 42.0219H19.9289L19.9214 43.5219ZM18.1459 43.513L18.1384 45.013H18.1384L18.1459 43.513ZM12.763 24.3581C13.3487 23.7723 13.3487 22.8225 12.763 22.2368C12.1772 21.651 11.2274 21.651 10.6416 22.2368L12.763 24.3581ZM8.15508 35.8754L6.90221 36.7002L6.90221 36.7002L8.15508 35.8754ZM8.17131 27.0528L6.92148 26.2234H6.92148L8.17131 27.0528ZM15.0698 42.9101L14.2809 44.1859V44.1859L15.0698 42.9101ZM16.222 43.3932L16.5789 41.9363H16.5789L16.222 43.3932ZM23.043 42.9346L23.8285 44.2125H23.8285L23.043 42.9346ZM21.8733 43.4185L21.5264 41.9592V41.9592L21.8733 43.4185ZM41.298 16.7849L39.9751 17.492V17.492L41.298 16.7849ZM41.298 24.3273L42.6208 25.0344L42.6208 25.0344L41.298 24.3273ZM35.381 10.3936L34.372 11.5036L35.381 10.3936ZM22.9393 9.93911C22.3535 10.5249 22.3535 11.4746 22.9393 12.0604C23.5251 12.6462 24.4748 12.6462 25.0606 12.0604L22.9393 9.93911ZM24.6189 10.3936L25.6279 11.5036V11.5036L24.6189 10.3936ZM18.4999 44.9998H38V41.9998H18.4999V44.9998ZM34.9393 12.0604L36.7175 13.8386L38.8388 11.7173L37.0606 9.93911L34.9393 12.0604ZM14.7004 40.5651L11.6537 37.4959L9.52455 39.6094L12.5713 42.6786L14.7004 40.5651ZM36.7175 27.2736L25.1109 38.8802L27.2322 41.0016L38.8388 29.395L36.7175 27.2736ZM9.55451 25.4452L25.1109 41.0016L27.2322 38.8802L11.6758 23.3239L9.55451 25.4452ZM25.1065 38.8846L23.4324 40.5725L25.5624 42.6851L27.2365 40.9972L25.1065 38.8846ZM19.9289 42.0219L18.1534 42.013L18.1384 45.013L19.9139 45.0218L19.9289 42.0219ZM11.6758 25.4452L12.763 24.3581L10.6416 22.2368L9.55451 23.3239L11.6758 25.4452ZM11.6537 37.4959C10.2731 36.1051 9.74486 35.5624 9.40794 35.0506L6.90221 36.7002C7.44582 37.526 8.24679 38.3222 9.52455 39.6094L11.6537 37.4959ZM9.55451 23.3239C8.27202 24.6064 7.46813 25.3997 6.92148 26.2234L9.42113 27.8822C9.75993 27.3717 10.2901 26.8309 11.6758 25.4452L9.55451 23.3239ZM9.40794 35.0506C7.97529 32.8744 7.98048 30.0531 9.42113 27.8822L6.92148 26.2234C4.81591 29.3962 4.80833 33.5197 6.90221 36.7002L9.40794 35.0506ZM12.5713 42.6786C13.2091 43.3211 13.6931 43.8224 14.2809 44.1859L15.8588 41.6343C15.6426 41.5007 15.4386 41.3088 14.7004 40.5651L12.5713 42.6786ZM18.1534 42.013C17.1056 42.0078 16.8258 41.9968 16.5789 41.9363L15.8651 44.8502C16.5364 45.0146 17.2331 45.0085 18.1384 45.013L18.1534 42.013ZM14.2809 44.1859C14.7709 44.4889 15.3055 44.7131 15.8651 44.8502L16.5789 41.9363C16.3245 41.874 16.0815 41.7721 15.8588 41.6343L14.2809 44.1859ZM23.4324 40.5725C22.6839 41.3272 22.4769 41.5219 22.2575 41.6568L23.8285 44.2125C24.4252 43.8457 24.9158 43.337 25.5624 42.6851L23.4324 40.5725ZM19.9139 45.0218C20.8321 45.0264 21.5387 45.0398 22.2201 44.8779L21.5264 41.9592C21.2758 42.0187 20.9918 42.0272 19.9289 42.0219L19.9139 45.0218ZM22.2575 41.6568C22.0314 41.7957 21.7846 41.8978 21.5264 41.9592L22.2201 44.8779C22.7882 44.7429 23.3311 44.5183 23.8285 44.2125L22.2575 41.6568ZM36.7175 13.8386C38.7683 15.8894 39.547 16.6912 39.9751 17.492L42.6208 16.0778C41.9301 14.7856 40.7352 13.6137 38.8388 11.7173L36.7175 13.8386ZM38.8388 29.395C40.7352 27.4985 41.9301 26.3266 42.6208 25.0344L39.9751 23.6202C39.547 24.4211 38.7683 25.2228 36.7175 27.2736L38.8388 29.395ZM39.9751 17.492C40.9984 19.4066 40.9984 21.7056 39.9751 23.6202L42.6208 25.0344C44.1165 22.2362 44.1165 18.876 42.6208 16.0778L39.9751 17.492ZM37.0606 9.93911C36.7542 9.63271 36.5641 9.44197 36.3899 9.28367L34.372 11.5036C34.48 11.6017 34.6085 11.7296 34.9393 12.0604L37.0606 9.93911ZM25.0606 12.0604C25.3914 11.7296 25.5199 11.6017 25.6279 11.5036L23.61 9.28367C23.4358 9.44197 23.2457 9.63271 22.9393 9.93911L25.0606 12.0604ZM36.3899 9.28367C32.7665 5.99008 27.2334 5.99008 23.61 9.28367L25.6279 11.5036C28.107 9.2501 31.8929 9.2501 34.372 11.5036L36.3899 9.28367Z" fill="#B3FF10"/>
</svg>
