<svg width="48" height="48" viewBox="0 0 48 48" fill="none" xmlns="http://www.w3.org/2000/svg">
<path d="M36 17H31.6727C29.7998 17 28.8634 17 28.0448 16.7064C27.3213 16.4469 26.6673 16.0241 26.1338 15.4707C25.5302 14.8448 25.1459 13.9908 24.3773 12.2829L24.1227 11.7171C23.3541 10.0092 22.9698 9.1552 22.3662 8.52926C21.8327 7.97594 21.1787 7.5531 20.4552 7.29358C19.6366 7 18.7002 7 16.8273 7H14.5C13.1066 7 12.4099 7 11.8262 7.08659C8.34051 7.60364 5.60364 10.3405 5.08659 13.8262C5 14.4099 5 15.1066 5 16.5V28.2C5 32.6804 5 34.9206 5.87195 36.6319C6.63893 38.1372 7.86278 39.3611 9.36808 40.1281C11.0794 41 13.3196 41 17.8 41H24M43 25V21.5C43 17.3024 43 15.2035 42.2319 13.5796C41.4406 11.9064 40.0936 10.5594 38.4204 9.76809C36.7965 9 34.6976 9 30.5 9" stroke="#B3FF10" stroke-width="3" stroke-linecap="round"/>
<path d="M35.9408 27.2896C35.9539 27.2251 36.0461 27.2251 36.0593 27.2896C36.7438 30.6386 39.361 33.2558 42.71 33.9403C42.7745 33.9535 42.7745 34.0456 42.71 34.0588C39.361 34.7433 36.7438 37.3605 36.0593 40.7095C36.0461 40.774 35.9539 40.774 35.9408 40.7095C35.2562 37.3605 32.6391 34.7433 29.2901 34.0588C29.2256 34.0456 29.2256 33.9535 29.2901 33.9403C32.6391 33.2558 35.2562 30.6386 35.9408 27.2896Z" stroke="#F0FFD1" stroke-width="3"/>
<path d="M23.3437 23.2105C23.4897 22.4962 24.5103 22.4962 24.6563 23.2105C24.9787 24.7881 26.2116 26.0209 27.7891 26.3434C28.5034 26.4893 28.5034 27.5099 27.7891 27.6559C26.2116 27.9784 24.9787 29.2112 24.6563 30.7888C24.5103 31.503 23.4897 31.503 23.3437 30.7888C23.0213 29.2112 21.7884 27.9784 20.2109 27.6559C19.4966 27.5099 19.4966 26.4893 20.2109 26.3434C21.7884 26.0209 23.0213 24.7881 23.3437 23.2105Z" fill="#F0FFD1"/>
</svg>
