<svg width="48" height="48" viewBox="0 0 48 48" fill="none" xmlns="http://www.w3.org/2000/svg">
<path d="M35.9408 5.2896C35.9539 5.22508 36.0461 5.22508 36.0593 5.2896C36.7438 8.63857 39.361 11.2558 42.71 11.9403C42.7745 11.9535 42.7745 12.0456 42.71 12.0588C39.361 12.7433 36.7438 15.3605 36.0593 18.7095C36.0461 18.774 35.9539 18.774 35.9408 18.7095C35.2562 15.3605 32.6391 12.7433 29.2901 12.0588C29.2256 12.0456 29.2256 11.9535 29.2901 11.9403C32.6391 11.2558 35.2562 8.63857 35.9408 5.2896Z" stroke="#F0FFD1" stroke-width="3"/>
<path d="M7 12H22M7 36H41M36 41V26M12 41V7" stroke="#B3FF10" stroke-width="3" stroke-linecap="round"/>
</svg>
