<svg width="48" height="48" viewBox="0 0 48 48" fill="none" xmlns="http://www.w3.org/2000/svg">
<path d="M10.9375 15.5866C10.729 14.5662 9.271 14.5662 9.06244 15.5866C8.60181 17.8402 6.84061 19.6014 4.58695 20.0621C3.56656 20.2706 3.56656 21.7286 4.58695 21.9372C6.84061 22.3978 8.60181 24.159 9.06244 26.4126C9.271 27.433 10.729 27.433 10.9375 26.4126C11.3982 24.159 13.1594 22.3978 15.413 21.9372C16.4334 21.7286 16.4334 20.2706 15.413 20.0621C13.1594 19.6014 11.3982 17.8402 10.9375 15.5866Z" fill="#F0FFD1"/>
<path d="M3.43744 7.75215C3.56258 7.13991 4.43735 7.13991 4.56249 7.75215C4.83887 9.10434 5.89559 10.1611 7.24778 10.4374C7.86002 10.5626 7.86002 11.4374 7.24778 11.5625C5.89559 11.8389 4.83887 12.8956 4.56249 14.2478C4.43735 14.86 3.56258 14.86 3.43744 14.2478C3.16106 12.8956 2.10434 11.8389 0.752147 11.5625C0.139909 11.4374 0.139909 10.5626 0.752148 10.4374C2.10434 10.1611 3.16106 9.10434 3.43744 7.75215Z" fill="#F0FFD1"/>
<path d="M18.2173 42.3243L18.2933 43.8224V43.8224L18.2173 42.3243ZM27.9505 41.8308L27.8746 40.3327L27.9505 41.8308ZM37.1606 34.4316L35.7141 34.0346V34.0346L37.1606 34.4316ZM37.542 33.0417L38.9886 33.4387V33.4387L37.542 33.0417ZM34.9491 23.2462L33.8885 24.3069V24.3069L34.9491 23.2462ZM26.7179 15.015L27.7786 13.9543V13.9543L26.7179 15.015ZM16.9224 12.4221L17.3194 13.8686V13.8686L16.9224 12.4221ZM15.1412 11.3555C14.3423 11.5747 13.8725 12.4001 14.0917 13.199C14.311 13.9979 15.1363 14.4677 15.9352 14.2485L15.1412 11.3555ZM9.17293 31.1309C9.21488 30.3036 8.57818 29.5988 7.75082 29.5569C6.92345 29.5149 6.21873 30.1516 6.17678 30.979L9.17293 31.1309ZM7.63977 31.7468L6.1417 31.6708V31.6708L7.63977 31.7468ZM23.5591 12.2972L24.2376 10.9595L24.2376 10.9595L23.5591 12.2972ZM21.0122 11.623L20.94 13.1213H20.94L21.0122 11.623ZM38.3411 28.9519L36.8428 29.0241V29.0241L38.3411 28.9519ZM37.6669 26.405L39.0047 25.7265L39.0046 25.7265L37.6669 26.405ZM32.9671 41.1365L33.5874 42.5022V42.5022L32.9671 41.1365ZM35.4016 39.1806L36.6015 40.0807L36.6015 40.0807L35.4016 39.1806ZM10.974 41.9145L10.3202 43.2645H10.3202L10.974 41.9145ZM8.04966 38.9901L6.69962 39.6439H6.69962L8.04966 38.9901ZM9.72639 38.1163C9.1406 38.702 9.1406 39.6518 9.72639 40.2376C10.3122 40.8234 11.2619 40.8234 11.8477 40.2376L9.72639 38.1163ZM21.4997 30.5856C22.0855 29.9998 22.0855 29.05 21.4997 28.4643C20.9139 27.8785 19.9642 27.8785 19.3784 28.4643L21.4997 30.5856ZM36.7733 25.0702L35.7126 26.1309L36.5978 27.0161L37.6271 26.3035L36.7733 25.0702ZM24.8939 13.1908L23.6606 12.337L22.948 13.3663L23.8332 14.2515L24.8939 13.1908ZM43.9555 16.7188L45.405 16.3329V16.3329L43.9555 16.7188ZM39.805 22.9713L38.9512 21.7381V21.7381L39.805 22.9713ZM43.6968 19.5886L42.3397 18.9496V18.9496L43.6968 19.5886ZM33.2452 6.00857L33.6312 4.55907V4.55907L33.2452 6.00857ZM26.9927 10.1591L28.226 11.0129V11.0129L26.9927 10.1591ZM30.3755 6.26734L31.0145 7.62443V7.62443L30.3755 6.26734ZM18.2933 43.8224L28.0265 43.3289L27.8746 40.3327L18.1414 40.8263L18.2933 43.8224ZM38.6071 34.8286L38.9886 33.4387L36.0955 32.6447L35.7141 34.0346L38.6071 34.8286ZM36.0098 22.1855L27.7786 13.9543L25.6573 16.0756L33.8885 24.3069L36.0098 22.1855ZM16.5254 10.9756L15.1412 11.3555L15.9352 14.2485L17.3194 13.8686L16.5254 10.9756ZM6.17678 30.979L6.1417 31.6708L9.13785 31.8228L9.17293 31.1309L6.17678 30.979ZM27.7786 13.9543C26.3415 12.5172 25.3965 11.5473 24.2376 10.9595L22.8805 13.635C23.5119 13.9552 24.076 14.4944 25.6573 16.0756L27.7786 13.9543ZM17.3194 13.8686C19.4759 13.2767 20.2329 13.0873 20.94 13.1213L21.0843 10.1248C19.7864 10.0623 18.4853 10.4377 16.5254 10.9756L17.3194 13.8686ZM24.2376 10.9595C23.2571 10.4621 22.1825 10.1777 21.0843 10.1248L20.94 13.1213C21.6158 13.1538 22.2771 13.3289 22.8805 13.635L24.2376 10.9595ZM38.9886 33.4387C39.5265 31.4788 39.9018 30.1777 39.8393 28.8798L36.8428 29.0241C36.8769 29.7312 36.6874 30.4882 36.0955 32.6447L38.9886 33.4387ZM33.8885 24.3069C35.4697 25.8881 36.0089 26.4522 36.3292 27.0836L39.0046 25.7265C38.4168 24.5676 37.4469 23.6226 36.0098 22.1855L33.8885 24.3069ZM39.8393 28.8798C39.7865 27.7816 39.502 26.707 39.0047 25.7265L36.3292 27.0836C36.6352 27.687 36.8103 28.3483 36.8428 29.0241L39.8393 28.8798ZM28.0265 43.3289C30.5157 43.2026 32.1746 43.1439 33.5874 42.5022L32.3467 39.7707C31.5789 40.1195 30.6203 40.1935 27.8746 40.3327L28.0265 43.3289ZM35.7141 34.0346C34.9864 36.6858 34.7076 37.606 34.2016 38.2806L36.6015 40.0807C37.5326 38.8393 37.9474 37.2321 38.6071 34.8286L35.7141 34.0346ZM33.5874 42.5022C34.7794 41.9608 35.8159 41.128 36.6015 40.0807L34.2016 38.2806C33.7182 38.9251 33.0803 39.4376 32.3467 39.7707L33.5874 42.5022ZM18.1414 40.8263C16.1852 40.9255 14.8121 40.9938 13.7438 40.9575C12.6913 40.9217 12.0843 40.7855 11.6278 40.5644L10.3202 43.2645C11.3165 43.7469 12.401 43.9136 13.6418 43.9558C14.8669 43.9974 16.3891 43.919 18.2933 43.8224L18.1414 40.8263ZM6.1417 31.6708C6.04514 33.5751 5.96669 35.0972 6.00836 36.3223C6.05056 37.5631 6.21719 38.6476 6.69962 39.6439L9.39969 38.3363C9.17861 37.8798 9.04242 37.2728 9.00662 36.2203C8.97029 35.1521 9.03865 33.7789 9.13785 31.8228L6.1417 31.6708ZM11.6278 40.5644C10.6555 40.0936 9.87051 39.3086 9.39969 38.3363L6.69962 39.6439C7.4647 41.2238 8.74034 42.4994 10.3202 43.2645L11.6278 40.5644ZM11.8477 40.2376L21.4997 30.5856L19.3784 28.4643L9.72639 38.1163L11.8477 40.2376ZM36.2091 10.2932C36.793 10.8771 37.3665 11.4506 37.94 12.0241C38.5135 12.5976 39.087 13.1711 39.6709 13.755L41.7922 11.6337C41.2083 11.0498 40.6348 10.4763 40.0613 9.90279C39.4878 9.32928 38.9143 8.75578 38.3304 8.17189L36.2091 10.2932ZM38.9512 21.7381L35.9194 23.8369L37.6271 26.3035L40.6588 24.2046L38.9512 21.7381ZM37.8339 24.0096L25.9545 12.1302L23.8332 14.2515L35.7126 26.1309L37.8339 24.0096ZM26.1271 14.0447L28.226 11.0129L25.7595 9.3053L23.6606 12.337L26.1271 14.0447ZM39.6709 13.755C40.6677 14.7518 41.3459 15.432 41.8194 15.9956C42.2841 16.5489 42.4427 16.8671 42.506 17.1048L45.405 16.3329C45.1778 15.4796 44.7023 14.7634 44.1166 14.0661C43.5396 13.3792 42.751 12.5925 41.7922 11.6337L39.6709 13.755ZM40.6588 24.2046C41.7737 23.4328 42.6902 22.7999 43.3807 22.2273C44.0817 21.646 44.6777 21.0264 45.0538 20.2276L42.3397 18.9496C42.2349 19.1721 42.0219 19.4568 41.4658 19.918C40.8991 20.3879 40.1102 20.9357 38.9512 21.7381L40.6588 24.2046ZM42.506 17.1048C42.6698 17.7201 42.6109 18.3735 42.3397 18.9496L45.0538 20.2276C45.6265 19.0114 45.7509 17.6319 45.405 16.3329L42.506 17.1048ZM38.3304 8.17189C37.3716 7.21305 36.5849 6.42452 35.898 5.84753C35.2007 5.26181 34.4845 4.78625 33.6312 4.55907L32.8593 7.45808C33.097 7.52136 33.4152 7.67995 33.9685 8.14468C34.5321 8.61815 35.2122 9.29638 36.2091 10.2932L38.3304 8.17189ZM28.226 11.0129C29.0284 9.8539 29.5762 9.06497 30.0461 8.49833C30.5073 7.94215 30.792 7.72921 31.0145 7.62443L29.7365 4.91024C28.9376 5.2864 28.3181 5.8824 27.7368 6.5834C27.1642 7.27394 26.5313 8.19044 25.7595 9.3053L28.226 11.0129ZM33.6312 4.55907C32.3322 4.21322 30.9527 4.3376 29.7365 4.91024L31.0145 7.62443C31.5906 7.35318 32.244 7.29426 32.8593 7.45808L33.6312 4.55907Z" fill="#B3FF10"/>
</svg>
