<svg width="48" height="48" viewBox="0 0 48 48" fill="none" xmlns="http://www.w3.org/2000/svg">
<path d="M35.9408 7.2896C35.9539 7.22508 36.0461 7.22508 36.0593 7.2896C36.7438 10.6386 39.361 13.2558 42.71 13.9403C42.7745 13.9535 42.7745 14.0456 42.71 14.0588C39.361 14.7433 36.7438 17.3605 36.0593 20.7095C36.0461 20.774 35.9539 20.774 35.9408 20.7095C35.2562 17.3605 32.6391 14.7433 29.2901 14.0588C29.2256 14.0456 29.2256 13.9535 29.2901 13.9403C32.6391 13.2558 35.2562 10.6386 35.9408 7.2896Z" stroke="#F0FFD1" stroke-width="3"/>
<path d="M41 23.4997V26.465C41 28.4954 41 29.5105 40.7362 30.444C40.5026 31.2708 40.1188 32.0475 39.6039 32.7353C39.0227 33.5118 38.2162 34.1285 36.6034 35.3618L31.7754 39.0539C28.991 41.1831 27.5988 42.2477 26.0654 42.6575C24.7122 43.0191 23.2878 43.0191 21.9346 42.6575C20.4012 42.2477 19.009 41.1831 16.2246 39.0539L11.3966 35.3618C9.78374 34.1285 8.97733 33.5118 8.39607 32.7353C7.88121 32.0475 7.49738 31.2708 7.26376 30.444C7 29.5105 7 28.4954 7 26.465V18.9239C7 16.0709 7 14.6444 7.47232 13.4246C7.88949 12.3473 8.56679 11.39 9.44384 10.6381C10.4368 9.78675 11.782 9.31197 14.4724 8.36243L19.7399 6.50331C21.3186 5.94612 22.108 5.66752 22.9176 5.55696C23.6359 5.45888 24.3641 5.45888 25.0824 5.55696C25.892 5.66752 26.6814 5.94612 28.2601 6.50331L29.5 6.94092" stroke="#B3FF10" stroke-width="3" stroke-linecap="round"/>
<path d="M24.9375 18.5866C24.729 17.5662 23.271 17.5662 23.0624 18.5866C22.6018 20.8402 20.8406 22.6014 18.587 23.0621C17.5666 23.2706 17.5666 24.7286 18.587 24.9372C20.8406 25.3978 22.6018 27.159 23.0624 29.4126C23.271 30.433 24.729 30.433 24.9375 29.4126C25.3982 27.159 27.1594 25.3978 29.413 24.9372C30.4334 24.7286 30.4334 23.2706 29.413 23.0621C27.1594 22.6014 25.3982 20.8402 24.9375 18.5866Z" fill="#F0FFD1"/>
</svg>
