<svg width="50" height="48" viewBox="0 0 50 48" fill="none" xmlns="http://www.w3.org/2000/svg">
<path d="M3.14447 0.752147C3.26961 0.139909 4.14438 0.139909 4.26952 0.752148C4.5459 2.10434 5.60262 3.16106 6.95481 3.43744C7.56705 3.56258 7.56705 4.43735 6.95481 4.56249C5.60262 4.83887 4.5459 5.89559 4.26952 7.24778C4.14438 7.86002 3.26961 7.86002 3.14447 7.24778C2.86809 5.89559 1.81137 4.83887 0.459179 4.56249C-0.15306 4.43735 -0.153059 3.56258 0.459179 3.43744C1.81137 3.16106 2.86809 2.10434 3.14447 0.752147Z" fill="#D3722A"/>
<path d="M10.6478 7.29009C10.661 7.22557 10.7532 7.22557 10.7664 7.29009C11.4509 10.6391 14.068 13.2562 17.417 13.9408C17.4815 13.9539 17.4815 14.0461 17.417 14.0593C14.068 14.7438 11.4509 17.361 10.7664 20.71C10.7532 20.7745 10.661 20.7745 10.6478 20.71C9.96328 17.361 7.34609 14.7438 3.99712 14.0593C3.9326 14.0461 3.9326 13.9539 3.99712 13.9408C7.34609 13.2562 9.96328 10.6391 10.6478 7.29009Z" stroke="#D3722A" stroke-width="3"/>
<path d="M20.8709 3.04643C20.0635 3.23206 19.5595 4.03705 19.7452 4.84441C19.9308 5.65177 20.7358 6.15577 21.5432 5.97014L20.8709 3.04643ZM7.70703 32.7283L9.05625 32.0728L7.70703 32.7283ZM7.20703 24C7.20703 23.1716 6.53546 22.5 5.70703 22.5C4.8786 22.5 4.20703 23.1716 4.20703 24H7.20703ZM27.207 45.5001C28.0355 45.5001 28.707 44.8285 28.707 44.0001C28.707 43.1716 28.0355 42.5001 27.207 42.5001V45.5001ZM23.707 36.0001L25.0487 36.6709V36.6709L23.707 36.0001ZM32.207 28.5001L30.7403 28.1858V28.1858L32.207 28.5001ZM32.207 19L33.5858 19.5909V19.5909L32.207 19ZM43.6464 18.5607C44.2322 19.1464 45.1819 19.1464 45.7677 18.5607C46.3535 17.9749 46.3535 17.0251 45.7677 16.4393L43.6464 18.5607ZM20.707 3C19.8786 3 19.207 3.67157 19.207 4.5C19.207 5.32843 19.8786 6 20.707 6V3ZM26.2071 17.5L24.8654 16.8292V16.8292L26.2071 17.5ZM18.707 24.5L20.1737 24.8143V24.8143L18.707 24.5ZM7.32832 31.9091C7.00198 32.6705 7.35469 33.5524 8.11613 33.8787C8.87757 34.2051 9.7594 33.8523 10.0857 33.0909L7.32832 31.9091ZM44.207 24C44.207 34.2173 35.9243 42.5 25.707 42.5V45.5C37.5812 45.5 47.207 35.8741 47.207 24H44.207ZM25.707 5.5C35.9243 5.5 44.207 13.7827 44.207 24H47.207C47.207 12.1259 37.5812 2.5 25.707 2.5V5.5ZM21.5432 5.97014C22.8801 5.66274 24.2736 5.5 25.707 5.5V2.5C24.0458 2.5 22.4268 2.68869 20.8709 3.04643L21.5432 5.97014ZM25.707 42.5C18.3866 42.5 12.0563 38.2483 9.05625 32.0728L6.35782 33.3837C9.84063 40.5529 17.1947 45.5 25.707 45.5V42.5ZM9.05625 32.0728C7.872 29.6351 7.20703 26.8973 7.20703 24H4.20703C4.20703 27.3613 4.97943 30.5464 6.35782 33.3837L9.05625 32.0728ZM27.207 42.5001C26.2907 42.5001 25.7788 42.2289 25.4605 41.9237C25.1129 41.5906 24.8517 41.0755 24.7093 40.3823C24.5676 39.6927 24.5644 38.9198 24.6542 38.2072C24.7461 37.478 24.9201 36.9281 25.0487 36.6709L22.3654 35.3293C22.0379 35.9843 21.7964 36.8904 21.6777 37.8322C21.557 38.7906 21.5483 39.9037 21.7707 40.986C21.9923 42.0648 22.4646 43.2077 23.3845 44.0895C24.3337 44.9993 25.6233 45.5001 27.207 45.5001V42.5001ZM25.0487 36.6709C25.6811 35.406 26.5182 35.4214 28.5707 34.8133C29.5162 34.5331 30.6246 34.0972 31.5938 33.1174C32.5623 32.1383 33.258 30.7543 33.6737 28.8144L30.7403 28.1858C30.406 29.7459 29.9142 30.5494 29.4609 31.0077C29.0082 31.4654 28.4604 31.717 27.7184 31.9369C26.3958 32.3288 23.7329 32.5942 22.3654 35.3293L25.0487 36.6709ZM33.6737 28.8144C34.1593 26.5483 33.6992 24.7319 33.4227 23.3386C33.1467 21.9478 33.0218 20.9068 33.5858 19.5909L30.8283 18.4091C29.8922 20.5933 30.1765 22.393 30.4801 23.9226C30.7831 25.4498 31.073 26.6335 30.7403 28.1858L33.6737 28.8144ZM33.5858 19.5909C34.4796 17.5055 36.4171 16.8417 38.7384 16.9909C39.8849 17.0646 41.0225 17.3419 41.9537 17.686C42.9414 18.051 43.5051 18.4194 43.6464 18.5607L45.7677 16.4393C45.159 15.8306 44.0985 15.2803 42.9936 14.872C41.8321 14.4428 40.4086 14.0921 38.9309 13.9971C36.0039 13.809 32.4415 14.6452 30.8283 18.4091L33.5858 19.5909ZM20.707 6C21.3238 6 21.9558 6.32531 22.6116 7.18467C23.275 8.05398 23.8265 9.31027 24.2319 10.7282C24.6327 12.1301 24.8628 13.5912 24.9386 14.7935C24.9765 15.3948 24.9742 15.9062 24.9426 16.2965C24.907 16.7357 24.8452 16.8697 24.8654 16.8292L27.5487 18.1708C27.797 17.6742 27.8906 17.06 27.9328 16.5388C27.979 15.9687 27.977 15.3077 27.9326 14.6047C27.844 13.1986 27.5795 11.5236 27.1163 9.90355C26.6577 8.29955 25.9757 6.6479 24.9965 5.36475C24.0098 4.07165 22.5903 3 20.707 3V6ZM24.8654 16.8292C24.5246 17.5109 24.1641 17.7641 23.802 17.9223C23.5858 18.0167 23.3352 18.0899 23.0084 18.1665C22.7395 18.2295 22.2609 18.3271 21.8909 18.4236C21.0342 18.6471 20.0175 19.0302 19.1258 20.0009C18.261 20.9423 17.6463 22.291 17.2403 24.1857L20.1737 24.8143C20.5177 23.209 20.9656 22.4327 21.3351 22.0304C21.6779 21.6573 22.0674 21.4779 22.6482 21.3264C22.9969 21.2355 23.245 21.1924 23.6929 21.0874C24.0828 20.996 24.5393 20.8739 25.0028 20.6715C26.0001 20.2359 26.8896 19.4891 27.5487 18.1708L24.8654 16.8292ZM17.2403 24.1857C17.1409 24.6496 16.8153 25.1304 16.1 25.6765C15.3751 26.2299 14.4203 26.7237 13.3016 27.273C12.2379 27.7953 11.0077 28.3757 9.96774 29.0541C8.9307 29.7306 7.87608 30.6311 7.32832 31.9091L10.0857 33.0909C10.288 32.619 10.7561 32.1217 11.6068 31.5667C12.4547 31.0137 13.4773 30.5288 14.6238 29.9659C15.7153 29.43 16.9281 28.8186 17.9205 28.061C18.9225 27.296 19.864 26.2597 20.1737 24.8143L17.2403 24.1857Z" fill="#100F0F"/>
</svg>
