<svg width="48" height="48" viewBox="0 0 48 48" fill="none" xmlns="http://www.w3.org/2000/svg">
<path d="M37.9408 30.2901C37.9539 30.2256 38.0461 30.2256 38.0593 30.2901C38.7438 33.6391 41.361 36.2562 44.71 36.9408C44.7745 36.9539 44.7745 37.0461 44.71 37.0593C41.361 37.7438 38.7438 40.361 38.0593 43.71C38.0461 43.7745 37.9539 43.7745 37.9408 43.71C37.2562 40.361 34.6391 37.7438 31.2901 37.0593C31.2256 37.0461 31.2256 36.9539 31.2901 36.9408C34.6391 36.2562 37.2562 33.6391 37.9408 30.2901Z" stroke="#D3722A" stroke-width="3"/>
<path d="M35.2928 18.0207L38.8283 14.4852C40.3904 12.9231 40.3904 10.3904 38.8283 8.82831C37.2662 7.26621 34.7336 7.26621 33.1715 8.82831L29.6359 12.3638L9.12982 32.8699C7.56773 34.432 7.56773 36.9647 9.12982 38.5268C10.6919 40.0889 13.2246 40.0889 14.7867 38.5268L35.2928 18.0207ZM29.6359 12.3638L35.2928 18.0207" stroke="#100F0F" stroke-width="3" stroke-linecap="round"/>
<path d="M14.0626 1.58707C14.2711 0.566677 15.7291 0.566679 15.9376 1.58708C16.3983 3.84073 18.1595 5.60193 20.4131 6.06256C21.4335 6.27112 21.4335 7.72908 20.4131 7.93764C18.1595 8.39827 16.3983 10.1595 15.9376 12.4131C15.7291 13.4335 14.2711 13.4335 14.0626 12.4131C13.6019 10.1595 11.8407 8.39827 9.58708 7.93764C8.56668 7.72908 8.56668 6.27112 9.58707 6.06256C11.8407 5.60193 13.6019 3.84073 14.0626 1.58707Z" fill="#D3722A"/>
</svg>
